<svg width="528" height="96" viewBox="0 0 528 96" fill="none" xmlns="http://www.w3.org/2000/svg">
<path d="M221.581 13.272C222.21 13.3893 222.727 13.704 223.133 14.216C223.538 14.728 223.741 15.3147 223.741 15.976C223.741 16.5733 223.591 17.1013 223.293 17.56C223.005 18.008 222.583 18.36 222.029 18.616C221.474 18.872 220.818 19 220.061 19H215.245V7.832H219.853C220.61 7.832 221.261 7.95467 221.805 8.2C222.359 8.44533 222.775 8.78667 223.053 9.224C223.341 9.66133 223.485 10.1573 223.485 10.712C223.485 11.3627 223.309 11.9067 222.957 12.344C222.615 12.7813 222.157 13.0907 221.581 13.272ZM217.485 12.44H219.533C220.066 12.44 220.477 12.3227 220.765 12.088C221.053 11.8427 221.197 11.496 221.197 11.048C221.197 10.6 221.053 10.2533 220.765 10.008C220.477 9.76267 220.066 9.64 219.533 9.64H217.485V12.44ZM219.741 17.176C220.285 17.176 220.706 17.048 221.005 16.792C221.314 16.536 221.469 16.1733 221.469 15.704C221.469 15.224 221.309 14.8507 220.989 14.584C220.669 14.3067 220.237 14.168 219.693 14.168H217.485V17.176H219.741ZM227.766 7.16V19H225.526V7.16H227.766ZM233.915 19.144C233.062 19.144 232.294 18.9573 231.611 18.584C230.928 18.2 230.39 17.6613 229.995 16.968C229.611 16.2747 229.419 15.4747 229.419 14.568C229.419 13.6613 229.616 12.8613 230.011 12.168C230.416 11.4747 230.966 10.9413 231.659 10.568C232.352 10.184 233.126 9.992 233.979 9.992C234.832 9.992 235.606 10.184 236.299 10.568C236.992 10.9413 237.536 11.4747 237.931 12.168C238.336 12.8613 238.539 13.6613 238.539 14.568C238.539 15.4747 238.331 16.2747 237.915 16.968C237.51 17.6613 236.955 18.2 236.251 18.584C235.558 18.9573 234.779 19.144 233.915 19.144ZM233.915 17.192C234.32 17.192 234.699 17.096 235.051 16.904C235.414 16.7013 235.702 16.4027 235.915 16.008C236.128 15.6133 236.235 15.1333 236.235 14.568C236.235 13.7253 236.011 13.08 235.563 12.632C235.126 12.1733 234.587 11.944 233.947 11.944C233.307 11.944 232.768 12.1733 232.331 12.632C231.904 13.08 231.691 13.7253 231.691 14.568C231.691 15.4107 231.899 16.0613 232.315 16.52C232.742 16.968 233.275 17.192 233.915 17.192ZM243.654 9.992C244.315 9.992 244.897 10.1253 245.398 10.392C245.899 10.648 246.294 10.984 246.582 11.4V10.136H248.838V19.064C248.838 19.8853 248.673 20.616 248.342 21.256C248.011 21.9067 247.515 22.4187 246.854 22.792C246.193 23.176 245.393 23.368 244.454 23.368C243.195 23.368 242.161 23.0747 241.35 22.488C240.55 21.9013 240.097 21.1013 239.99 20.088H242.214C242.331 20.4933 242.582 20.8133 242.966 21.048C243.361 21.2933 243.835 21.416 244.39 21.416C245.041 21.416 245.569 21.2187 245.974 20.824C246.379 20.44 246.582 19.8533 246.582 19.064V17.688C246.294 18.104 245.894 18.4507 245.382 18.728C244.881 19.0053 244.305 19.144 243.654 19.144C242.907 19.144 242.225 18.952 241.606 18.568C240.987 18.184 240.497 17.6453 240.134 16.952C239.782 16.248 239.606 15.4427 239.606 14.536C239.606 13.64 239.782 12.8453 240.134 12.152C240.497 11.4587 240.982 10.9253 241.59 10.552C242.209 10.1787 242.897 9.992 243.654 9.992ZM246.582 14.568C246.582 14.024 246.475 13.56 246.262 13.176C246.049 12.7813 245.761 12.4827 245.398 12.28C245.035 12.0667 244.646 11.96 244.23 11.96C243.814 11.96 243.43 12.0613 243.078 12.264C242.726 12.4667 242.438 12.7653 242.214 13.16C242.001 13.544 241.894 14.0027 241.894 14.536C241.894 15.0693 242.001 15.5387 242.214 15.944C242.438 16.3387 242.726 16.6427 243.078 16.856C243.441 17.0693 243.825 17.176 244.23 17.176C244.646 17.176 245.035 17.0747 245.398 16.872C245.761 16.6587 246.049 16.36 246.262 15.976C246.475 15.5813 246.582 15.112 246.582 14.568ZM263.43 19L262.214 17.8C261.18 18.728 259.916 19.192 258.422 19.192C257.601 19.192 256.876 19.0533 256.246 18.776C255.628 18.488 255.148 18.088 254.806 17.576C254.465 17.0533 254.294 16.4507 254.294 15.768C254.294 15.032 254.502 14.3707 254.918 13.784C255.334 13.1973 255.948 12.7227 256.758 12.36C256.47 12.008 256.262 11.672 256.134 11.352C256.006 11.0213 255.942 10.6693 255.942 10.296C255.942 9.784 256.076 9.32533 256.342 8.92C256.609 8.504 256.988 8.17867 257.478 7.944C257.98 7.70933 258.561 7.592 259.222 7.592C259.894 7.592 260.47 7.72 260.95 7.976C261.43 8.232 261.788 8.57333 262.022 9C262.257 9.42667 262.358 9.90133 262.326 10.424H260.15C260.161 10.072 260.076 9.80533 259.894 9.624C259.713 9.432 259.468 9.336 259.158 9.336C258.86 9.336 258.609 9.42667 258.406 9.608C258.214 9.77867 258.118 10.0027 258.118 10.28C258.118 10.5467 258.198 10.8133 258.358 11.08C258.518 11.336 258.78 11.656 259.142 12.04L261.958 14.824C261.98 14.8027 261.996 14.7813 262.006 14.76C262.017 14.7387 262.028 14.7173 262.038 14.696L262.95 13.176H265.286L264.166 15.144C263.953 15.56 263.724 15.9547 263.478 16.328L266.182 19H263.43ZM258.486 17.336C259.361 17.336 260.134 17.0267 260.806 16.408L258.054 13.688C257.02 14.1467 256.502 14.7973 256.502 15.64C256.502 16.12 256.684 16.5253 257.046 16.856C257.409 17.176 257.889 17.336 258.486 17.336ZM280.656 19H278.416L273.344 11.336V19H271.104V7.816H273.344L278.416 15.496V7.816H280.656V19ZM291.11 14.376C291.11 14.696 291.088 14.984 291.046 15.24H284.566C284.619 15.88 284.843 16.3813 285.238 16.744C285.632 17.1067 286.118 17.288 286.694 17.288C287.526 17.288 288.118 16.9307 288.47 16.216H290.886C290.63 17.0693 290.139 17.7733 289.414 18.328C288.688 18.872 287.798 19.144 286.742 19.144C285.888 19.144 285.12 18.9573 284.438 18.584C283.766 18.2 283.238 17.6613 282.854 16.968C282.48 16.2747 282.294 15.4747 282.294 14.568C282.294 13.6507 282.48 12.8453 282.854 12.152C283.227 11.4587 283.75 10.9253 284.422 10.552C285.094 10.1787 285.867 9.992 286.742 9.992C287.584 9.992 288.336 10.1733 288.998 10.536C289.67 10.8987 290.187 11.416 290.55 12.088C290.923 12.7493 291.11 13.512 291.11 14.376ZM288.79 13.736C288.779 13.16 288.571 12.7013 288.166 12.36C287.76 12.008 287.264 11.832 286.678 11.832C286.123 11.832 285.654 12.0027 285.27 12.344C284.896 12.6747 284.667 13.1387 284.582 13.736H288.79ZM305.033 10.136L302.441 19H300.025L298.409 12.808L296.793 19H294.361L291.753 10.136H294.025L295.593 16.888L297.289 10.136H299.657L301.321 16.872L302.889 10.136H305.033ZM309.637 19.144C308.911 19.144 308.261 19.016 307.685 18.76C307.109 18.4933 306.65 18.136 306.309 17.688C305.978 17.24 305.797 16.744 305.765 16.2H308.021C308.063 16.5413 308.229 16.824 308.517 17.048C308.815 17.272 309.183 17.384 309.621 17.384C310.047 17.384 310.378 17.2987 310.613 17.128C310.858 16.9573 310.981 16.7387 310.981 16.472C310.981 16.184 310.831 15.9707 310.533 15.832C310.245 15.6827 309.781 15.5227 309.141 15.352C308.479 15.192 307.935 15.0267 307.509 14.856C307.093 14.6853 306.73 14.424 306.421 14.072C306.122 13.72 305.973 13.2453 305.973 12.648C305.973 12.1573 306.111 11.7093 306.389 11.304C306.677 10.8987 307.082 10.5787 307.605 10.344C308.138 10.1093 308.762 9.992 309.477 9.992C310.533 9.992 311.375 10.2587 312.005 10.792C312.634 11.3147 312.981 12.024 313.045 12.92H310.901C310.869 12.568 310.719 12.2907 310.453 12.088C310.197 11.8747 309.85 11.768 309.413 11.768C309.007 11.768 308.693 11.8427 308.469 11.992C308.255 12.1413 308.149 12.3493 308.149 12.616C308.149 12.9147 308.298 13.144 308.597 13.304C308.895 13.4533 309.359 13.608 309.989 13.768C310.629 13.928 311.157 14.0933 311.573 14.264C311.989 14.4347 312.346 14.7013 312.645 15.064C312.954 15.416 313.114 15.8853 313.125 16.472C313.125 16.984 312.981 17.4427 312.693 17.848C312.415 18.2533 312.01 18.5733 311.477 18.808C310.954 19.032 310.341 19.144 309.637 19.144Z" fill="#2AA7FF"/>
<path d="M20.7326 78.5L13.3406 65.444H10.1726V78.5H3.45263V44.996H16.0286C18.6206 44.996 20.8286 45.46 22.6526 46.388C24.4766 47.284 25.8366 48.516 26.7326 50.084C27.6606 51.62 28.1246 53.348 28.1246 55.268C28.1246 57.476 27.4846 59.476 26.2046 61.268C24.9246 63.028 23.0206 64.244 20.4926 64.916L28.5086 78.5H20.7326ZM10.1726 60.404H15.7886C17.6126 60.404 18.9726 59.972 19.8686 59.108C20.7646 58.212 21.2126 56.98 21.2126 55.412C21.2126 53.876 20.7646 52.692 19.8686 51.86C18.9726 50.996 17.6126 50.564 15.7886 50.564H10.1726V60.404ZM58.9226 64.628C58.9226 65.588 58.8586 66.452 58.7306 67.22H39.2906C39.4506 69.14 40.1226 70.644 41.3066 71.732C42.4906 72.82 43.9466 73.364 45.6746 73.364C48.1706 73.364 49.9466 72.292 51.0026 70.148H58.2506C57.4826 72.708 56.0106 74.82 53.8346 76.484C51.6586 78.116 48.9866 78.932 45.8186 78.932C43.2586 78.932 40.9546 78.372 38.9066 77.252C36.8906 76.1 35.3066 74.484 34.1546 72.404C33.0346 70.324 32.4746 67.924 32.4746 65.204C32.4746 62.452 33.0346 60.036 34.1546 57.956C35.2746 55.876 36.8426 54.276 38.8586 53.156C40.8746 52.036 43.1946 51.476 45.8186 51.476C48.3466 51.476 50.6026 52.02 52.5866 53.108C54.6026 54.196 56.1546 55.748 57.2426 57.764C58.3626 59.748 58.9226 62.036 58.9226 64.628ZM51.9626 62.708C51.9306 60.98 51.3066 59.604 50.0906 58.58C48.8746 57.524 47.3866 56.996 45.6266 56.996C43.9626 56.996 42.5546 57.508 41.4026 58.532C40.2826 59.524 39.5946 60.916 39.3386 62.708H51.9626ZM62.0996 65.108C62.0996 62.42 62.6276 60.036 63.6836 57.956C64.7716 55.876 66.2276 54.276 68.0516 53.156C69.9076 52.036 71.9716 51.476 74.2436 51.476C76.2276 51.476 77.9556 51.876 79.4276 52.676C80.9316 53.476 82.1316 54.484 83.0276 55.7V51.908H89.7956V78.5H83.0276V74.612C82.1636 75.86 80.9636 76.9 79.4276 77.732C77.9236 78.532 76.1796 78.932 74.1956 78.932C71.9556 78.932 69.9076 78.356 68.0516 77.204C66.2276 76.052 64.7716 74.436 63.6836 72.356C62.6276 70.244 62.0996 67.828 62.0996 65.108ZM83.0276 65.204C83.0276 63.572 82.7076 62.18 82.0676 61.028C81.4276 59.844 80.5636 58.948 79.4756 58.34C78.3876 57.7 77.2196 57.38 75.9716 57.38C74.7236 57.38 73.5716 57.684 72.5156 58.292C71.4596 58.9 70.5956 59.796 69.9236 60.98C69.2836 62.132 68.9636 63.508 68.9636 65.108C68.9636 66.708 69.2836 68.116 69.9236 69.332C70.5956 70.516 71.4596 71.428 72.5156 72.068C73.6036 72.708 74.7556 73.028 75.9716 73.028C77.2196 73.028 78.3876 72.724 79.4756 72.116C80.5636 71.476 81.4276 70.58 82.0676 69.428C82.7076 68.244 83.0276 66.836 83.0276 65.204ZM94.6309 65.108C94.6309 62.42 95.1589 60.036 96.2149 57.956C97.3029 55.876 98.7749 54.276 100.631 53.156C102.487 52.036 104.551 51.476 106.823 51.476C108.551 51.476 110.199 51.86 111.767 52.628C113.335 53.364 114.583 54.356 115.511 55.604V42.98H122.327V78.5H115.511V74.564C114.679 75.876 113.511 76.932 112.007 77.732C110.503 78.532 108.759 78.932 106.775 78.932C104.535 78.932 102.487 78.356 100.631 77.204C98.7749 76.052 97.3029 74.436 96.2149 72.356C95.1589 70.244 94.6309 67.828 94.6309 65.108ZM115.559 65.204C115.559 63.572 115.239 62.18 114.599 61.028C113.959 59.844 113.095 58.948 112.007 58.34C110.919 57.7 109.751 57.38 108.503 57.38C107.255 57.38 106.103 57.684 105.047 58.292C103.991 58.9 103.127 59.796 102.455 60.98C101.815 62.132 101.495 63.508 101.495 65.108C101.495 66.708 101.815 68.116 102.455 69.332C103.127 70.516 103.991 71.428 105.047 72.068C106.135 72.708 107.287 73.028 108.503 73.028C109.751 73.028 110.919 72.724 112.007 72.116C113.095 71.476 113.959 70.58 114.599 69.428C115.239 68.244 115.559 66.836 115.559 65.204ZM155.88 78.836C152.744 78.836 149.864 78.1 147.24 76.628C144.616 75.156 142.536 73.124 141 70.532C139.464 67.908 138.696 64.948 138.696 61.652C138.696 58.388 139.464 55.46 141 52.868C142.536 50.244 144.616 48.196 147.24 46.724C149.864 45.252 152.744 44.516 155.88 44.516C159.048 44.516 161.928 45.252 164.52 46.724C167.144 48.196 169.208 50.244 170.712 52.868C172.248 55.46 173.016 58.388 173.016 61.652C173.016 64.948 172.248 67.908 170.712 70.532C169.208 73.124 167.144 75.156 164.52 76.628C161.896 78.1 159.016 78.836 155.88 78.836ZM155.88 72.836C157.896 72.836 159.672 72.388 161.208 71.492C162.744 70.564 163.944 69.252 164.808 67.556C165.672 65.86 166.104 63.892 166.104 61.652C166.104 59.412 165.672 57.46 164.808 55.796C163.944 54.1 162.744 52.804 161.208 51.908C159.672 51.012 157.896 50.564 155.88 50.564C153.864 50.564 152.072 51.012 150.504 51.908C148.968 52.804 147.768 54.1 146.904 55.796C146.04 57.46 145.608 59.412 145.608 61.652C145.608 63.892 146.04 65.86 146.904 67.556C147.768 69.252 148.968 70.564 150.504 71.492C152.072 72.388 153.864 72.836 155.88 72.836ZM203.119 51.908V78.5H196.351V75.14C195.487 76.292 194.351 77.204 192.943 77.876C191.567 78.516 190.063 78.836 188.431 78.836C186.351 78.836 184.511 78.404 182.911 77.54C181.311 76.644 180.047 75.348 179.119 73.652C178.223 71.924 177.775 69.876 177.775 67.508V51.908H184.495V66.548C184.495 68.66 185.023 70.292 186.079 71.444C187.135 72.564 188.575 73.124 190.399 73.124C192.255 73.124 193.711 72.564 194.767 71.444C195.823 70.292 196.351 68.66 196.351 66.548V51.908H203.119ZM216.47 56.036C217.334 54.628 218.454 53.524 219.83 52.724C221.238 51.924 222.838 51.524 224.63 51.524V58.58H222.854C220.742 58.58 219.142 59.076 218.054 60.068C216.998 61.06 216.47 62.788 216.47 65.252V78.5H209.75V51.908H216.47V56.036ZM247.313 73.172H258.353V78.5H240.593V44.996H247.313V73.172ZM260.896 65.108C260.896 62.42 261.424 60.036 262.48 57.956C263.569 55.876 265.025 54.276 266.849 53.156C268.705 52.036 270.769 51.476 273.041 51.476C275.025 51.476 276.753 51.876 278.225 52.676C279.729 53.476 280.929 54.484 281.825 55.7V51.908H288.593V78.5H281.825V74.612C280.961 75.86 279.761 76.9 278.225 77.732C276.721 78.532 274.977 78.932 272.993 78.932C270.753 78.932 268.705 78.356 266.849 77.204C265.025 76.052 263.569 74.436 262.48 72.356C261.424 70.244 260.896 67.828 260.896 65.108ZM281.825 65.204C281.825 63.572 281.505 62.18 280.865 61.028C280.225 59.844 279.361 58.948 278.273 58.34C277.185 57.7 276.017 57.38 274.769 57.38C273.521 57.38 272.369 57.684 271.312 58.292C270.257 58.9 269.393 59.796 268.721 60.98C268.081 62.132 267.761 63.508 267.761 65.108C267.761 66.708 268.081 68.116 268.721 69.332C269.393 70.516 270.257 71.428 271.312 72.068C272.401 72.708 273.553 73.028 274.769 73.028C276.017 73.028 277.185 72.724 278.273 72.116C279.361 71.476 280.225 70.58 280.865 69.428C281.505 68.244 281.825 66.836 281.825 65.204ZM302.98 57.428V70.292C302.98 71.188 303.188 71.844 303.604 72.26C304.052 72.644 304.788 72.836 305.812 72.836H308.932V78.5H304.708C299.044 78.5 296.212 75.748 296.212 70.244V57.428H293.044V51.908H296.212V45.332H302.98V51.908H308.932V57.428H302.98ZM338.485 64.628C338.485 65.588 338.421 66.452 338.293 67.22H318.853C319.013 69.14 319.685 70.644 320.869 71.732C322.053 72.82 323.509 73.364 325.237 73.364C327.733 73.364 329.509 72.292 330.565 70.148H337.813C337.045 72.708 335.573 74.82 333.397 76.484C331.221 78.116 328.549 78.932 325.381 78.932C322.821 78.932 320.517 78.372 318.469 77.252C316.453 76.1 314.869 74.484 313.717 72.404C312.597 70.324 312.037 67.924 312.037 65.204C312.037 62.452 312.597 60.036 313.717 57.956C314.837 55.876 316.405 54.276 318.421 53.156C320.437 52.036 322.757 51.476 325.381 51.476C327.909 51.476 330.165 52.02 332.149 53.108C334.165 54.196 335.717 55.748 336.805 57.764C337.925 59.748 338.485 62.036 338.485 64.628ZM331.525 62.708C331.493 60.98 330.869 59.604 329.653 58.58C328.437 57.524 326.949 56.996 325.189 56.996C323.525 56.996 322.117 57.508 320.965 58.532C319.845 59.524 319.157 60.916 318.901 62.708H331.525ZM353.566 78.932C351.39 78.932 349.438 78.548 347.71 77.78C345.982 76.98 344.606 75.908 343.582 74.564C342.59 73.22 342.046 71.732 341.95 70.1H348.718C348.846 71.124 349.342 71.972 350.206 72.644C351.102 73.316 352.206 73.652 353.518 73.652C354.798 73.652 355.79 73.396 356.494 72.884C357.23 72.372 357.598 71.716 357.598 70.916C357.598 70.052 357.15 69.412 356.254 68.996C355.39 68.548 353.998 68.068 352.078 67.556C350.094 67.076 348.462 66.58 347.182 66.068C345.934 65.556 344.846 64.772 343.918 63.716C343.022 62.66 342.574 61.236 342.574 59.444C342.574 57.972 342.99 56.628 343.822 55.412C344.686 54.196 345.902 53.236 347.47 52.532C349.07 51.828 350.942 51.476 353.086 51.476C356.254 51.476 358.782 52.276 360.67 53.876C362.558 55.444 363.598 57.572 363.79 60.26H357.358C357.262 59.204 356.814 58.372 356.014 57.764C355.246 57.124 354.206 56.804 352.894 56.804C351.678 56.804 350.734 57.028 350.062 57.476C349.422 57.924 349.102 58.548 349.102 59.348C349.102 60.244 349.55 60.932 350.446 61.412C351.342 61.86 352.734 62.324 354.622 62.804C356.542 63.284 358.126 63.78 359.374 64.292C360.622 64.804 361.694 65.604 362.59 66.692C363.518 67.748 363.998 69.156 364.03 70.916C364.03 72.452 363.598 73.828 362.734 75.044C361.902 76.26 360.686 77.22 359.086 77.924C357.518 78.596 355.678 78.932 353.566 78.932ZM377.37 57.428V70.292C377.37 71.188 377.578 71.844 377.994 72.26C378.442 72.644 379.178 72.836 380.202 72.836H383.322V78.5H379.098C373.434 78.5 370.602 75.748 370.602 70.244V57.428H367.434V51.908H370.602V45.332H377.37V51.908H383.322V57.428H377.37ZM428.249 78.5H421.529L406.313 55.508V78.5H399.593V44.948H406.313L421.529 67.988V44.948H428.249V78.5ZM459.61 64.628C459.61 65.588 459.546 66.452 459.418 67.22H439.978C440.138 69.14 440.81 70.644 441.994 71.732C443.178 72.82 444.634 73.364 446.362 73.364C448.858 73.364 450.634 72.292 451.69 70.148H458.938C458.17 72.708 456.698 74.82 454.522 76.484C452.346 78.116 449.674 78.932 446.506 78.932C443.946 78.932 441.642 78.372 439.594 77.252C437.578 76.1 435.994 74.484 434.842 72.404C433.722 70.324 433.162 67.924 433.162 65.204C433.162 62.452 433.722 60.036 434.842 57.956C435.962 55.876 437.53 54.276 439.546 53.156C441.562 52.036 443.882 51.476 446.506 51.476C449.034 51.476 451.29 52.02 453.274 53.108C455.29 54.196 456.842 55.748 457.93 57.764C459.05 59.748 459.61 62.036 459.61 64.628ZM452.65 62.708C452.618 60.98 451.994 59.604 450.778 58.58C449.562 57.524 448.074 56.996 446.314 56.996C444.65 56.996 443.242 57.508 442.09 58.532C440.97 59.524 440.282 60.916 440.026 62.708H452.65ZM501.379 51.908L493.603 78.5H486.355L481.507 59.924L476.659 78.5H469.363L461.539 51.908H468.355L473.059 72.164L478.147 51.908H485.251L490.243 72.116L494.947 51.908H501.379ZM515.191 78.932C513.015 78.932 511.063 78.548 509.335 77.78C507.607 76.98 506.231 75.908 505.207 74.564C504.215 73.22 503.671 71.732 503.575 70.1H510.343C510.471 71.124 510.967 71.972 511.831 72.644C512.727 73.316 513.831 73.652 515.143 73.652C516.423 73.652 517.415 73.396 518.119 72.884C518.855 72.372 519.223 71.716 519.223 70.916C519.223 70.052 518.775 69.412 517.879 68.996C517.015 68.548 515.623 68.068 513.703 67.556C511.719 67.076 510.087 66.58 508.807 66.068C507.559 65.556 506.471 64.772 505.543 63.716C504.647 62.66 504.199 61.236 504.199 59.444C504.199 57.972 504.615 56.628 505.447 55.412C506.311 54.196 507.527 53.236 509.095 52.532C510.695 51.828 512.567 51.476 514.711 51.476C517.879 51.476 520.407 52.276 522.295 53.876C524.183 55.444 525.223 57.572 525.415 60.26H518.983C518.887 59.204 518.439 58.372 517.639 57.764C516.871 57.124 515.831 56.804 514.519 56.804C513.303 56.804 512.359 57.028 511.687 57.476C511.047 57.924 510.727 58.548 510.727 59.348C510.727 60.244 511.175 60.932 512.071 61.412C512.967 61.86 514.359 62.324 516.247 62.804C518.167 63.284 519.751 63.78 520.999 64.292C522.247 64.804 523.319 65.604 524.215 66.692C525.143 67.748 525.623 69.156 525.655 70.916C525.655 72.452 525.223 73.828 524.359 75.044C523.527 76.26 522.311 77.22 520.711 77.924C519.143 78.596 517.303 78.932 515.191 78.932Z" fill="#1B3C74"/>
</svg>
