<svg width="203" height="153" viewBox="0 0 203 153" fill="none" xmlns="http://www.w3.org/2000/svg">
<rect x="0.5" y="0.5" width="202" height="152" rx="7.5" fill="#2AA7FF" fill-opacity="0.08" stroke="#2AA7FF"/>
<path d="M124.5 80.25H102C100.965 80.25 100.125 79.4104 100.125 78.375V29.625C100.125 28.5896 100.965 27.75 102 27.75H124.5C125.535 27.75 126.375 28.5896 126.375 29.625V78.375C126.375 79.4104 125.535 80.25 124.5 80.25ZM103.875 76.5H122.625V31.5H103.875V76.5Z" fill="#2AA7FF"/>
<path d="M117 80.25H109.5C108.465 80.25 107.625 79.4104 107.625 78.375V67.125C107.625 66.0896 108.465 65.25 109.5 65.25H117C118.035 65.25 118.875 66.0896 118.875 67.125V78.375C118.875 79.4104 118.035 80.25 117 80.25ZM111.375 76.5H115.125V69H111.375V76.5Z" fill="#2AA7FF"/>
<path d="M102 80.25H79.5C78.4646 80.25 77.625 79.4104 77.625 78.375V48.375C77.625 47.3396 78.4646 46.5 79.5 46.5H102C103.035 46.5 103.875 47.3396 103.875 48.375V78.375C103.875 79.4104 103.035 80.25 102 80.25ZM81.375 76.5H100.125V50.25H81.375V76.5Z" fill="#2AA7FF"/>
<path d="M117 39H115.125V37.125C115.125 36.0896 114.285 35.25 113.25 35.25C112.215 35.25 111.375 36.0896 111.375 37.125V39H109.5C108.465 39 107.625 39.8396 107.625 40.875C107.625 41.9104 108.465 42.75 109.5 42.75H111.375V44.625C111.375 45.6604 112.215 46.5 113.25 46.5C114.285 46.5 115.125 45.6604 115.125 44.625V42.75H117C118.035 42.75 118.875 41.9104 118.875 40.875C118.875 39.8396 118.035 39 117 39Z" fill="#2AA7FF"/>
<path d="M87 61.5C85.9646 61.5 85.125 60.6604 85.125 59.625V55.875C85.125 54.8396 85.9646 54 87 54C88.0354 54 88.875 54.8396 88.875 55.875V59.625C88.875 60.6604 88.0354 61.5 87 61.5Z" fill="#2AA7FF"/>
<path d="M87 72.75C85.9646 72.75 85.125 71.9104 85.125 70.875V67.125C85.125 66.0896 85.9646 65.25 87 65.25C88.0354 65.25 88.875 66.0896 88.875 67.125V70.875C88.875 71.9104 88.0354 72.75 87 72.75Z" fill="#2AA7FF"/>
<path d="M94.5 61.5C93.4646 61.5 92.625 60.6604 92.625 59.625V55.875C92.625 54.8396 93.4646 54 94.5 54C95.5354 54 96.375 54.8396 96.375 55.875V59.625C96.375 60.6604 95.5354 61.5 94.5 61.5Z" fill="#2AA7FF"/>
<path d="M94.5 72.75C93.4646 72.75 92.625 71.9104 92.625 70.875V67.125C92.625 66.0896 93.4646 65.25 94.5 65.25C95.5354 65.25 96.375 66.0896 96.375 67.125V70.875C96.375 71.9104 95.5354 72.75 94.5 72.75Z" fill="#2AA7FF"/>
<path d="M117 61.5H109.5C108.465 61.5 107.625 60.6604 107.625 59.625C107.625 58.5896 108.465 57.75 109.5 57.75H117C118.035 57.75 118.875 58.5896 118.875 59.625C118.875 60.6604 118.035 61.5 117 61.5Z" fill="#2AA7FF"/>
<path d="M69.0267 106.436V119H66.5067V113.654H61.1247V119H58.6047V106.436H61.1247V111.602H66.5067V106.436H69.0267ZM76.2951 119.162C75.3351 119.162 74.4711 118.952 73.7031 118.532C72.9351 118.1 72.3291 117.494 71.8851 116.714C71.4531 115.934 71.2371 115.034 71.2371 114.014C71.2371 112.994 71.4591 112.094 71.9031 111.314C72.3591 110.534 72.9771 109.934 73.7571 109.514C74.5371 109.082 75.4071 108.866 76.3671 108.866C77.3271 108.866 78.1971 109.082 78.9771 109.514C79.7571 109.934 80.3691 110.534 80.8131 111.314C81.2691 112.094 81.4971 112.994 81.4971 114.014C81.4971 115.034 81.2631 115.934 80.7951 116.714C80.3391 117.494 79.7151 118.1 78.9231 118.532C78.1431 118.952 77.2671 119.162 76.2951 119.162ZM76.2951 116.966C76.7511 116.966 77.1771 116.858 77.5731 116.642C77.9811 116.414 78.3051 116.078 78.5451 115.634C78.7851 115.19 78.9051 114.65 78.9051 114.014C78.9051 113.066 78.6531 112.34 78.1491 111.836C77.6571 111.32 77.0511 111.062 76.3311 111.062C75.6111 111.062 75.0051 111.32 74.5131 111.836C74.0331 112.34 73.7931 113.066 73.7931 114.014C73.7931 114.962 74.0271 115.694 74.4951 116.21C74.9751 116.714 75.5751 116.966 76.2951 116.966ZM87.5216 119.162C86.7056 119.162 85.9736 119.018 85.3256 118.73C84.6776 118.43 84.1616 118.028 83.7776 117.524C83.4056 117.02 83.2016 116.462 83.1656 115.85H85.7036C85.7516 116.234 85.9376 116.552 86.2616 116.804C86.5976 117.056 87.0116 117.182 87.5036 117.182C87.9836 117.182 88.3556 117.086 88.6196 116.894C88.8956 116.702 89.0336 116.456 89.0336 116.156C89.0336 115.832 88.8656 115.592 88.5296 115.436C88.2056 115.268 87.6836 115.088 86.9636 114.896C86.2196 114.716 85.6076 114.53 85.1276 114.338C84.6596 114.146 84.2516 113.852 83.9036 113.456C83.5676 113.06 83.3996 112.526 83.3996 111.854C83.3996 111.302 83.5556 110.798 83.8676 110.342C84.1916 109.886 84.6476 109.526 85.2356 109.262C85.8356 108.998 86.5376 108.866 87.3416 108.866C88.5296 108.866 89.4776 109.166 90.1856 109.766C90.8936 110.354 91.2836 111.152 91.3556 112.16H88.9436C88.9076 111.764 88.7396 111.452 88.4396 111.224C88.1516 110.984 87.7616 110.864 87.2696 110.864C86.8136 110.864 86.4596 110.948 86.2076 111.116C85.9676 111.284 85.8476 111.518 85.8476 111.818C85.8476 112.154 86.0156 112.412 86.3516 112.592C86.6876 112.76 87.2096 112.934 87.9176 113.114C88.6376 113.294 89.2316 113.48 89.6996 113.672C90.1676 113.864 90.5696 114.164 90.9056 114.572C91.2536 114.968 91.4336 115.496 91.4456 116.156C91.4456 116.732 91.2836 117.248 90.9596 117.704C90.6476 118.16 90.1916 118.52 89.5916 118.784C89.0036 119.036 88.3136 119.162 87.5216 119.162ZM96.3942 110.468C96.7182 110.012 97.1622 109.634 97.7262 109.334C98.3022 109.022 98.9562 108.866 99.6882 108.866C100.54 108.866 101.308 109.076 101.992 109.496C102.688 109.916 103.234 110.516 103.63 111.296C104.038 112.064 104.242 112.958 104.242 113.978C104.242 114.998 104.038 115.904 103.63 116.696C103.234 117.476 102.688 118.082 101.992 118.514C101.308 118.946 100.54 119.162 99.6882 119.162C98.9562 119.162 98.3082 119.012 97.7442 118.712C97.1922 118.412 96.7422 118.034 96.3942 117.578V123.752H93.8742V109.028H96.3942V110.468ZM101.668 113.978C101.668 113.378 101.542 112.862 101.29 112.43C101.05 111.986 100.726 111.65 100.318 111.422C99.9222 111.194 99.4902 111.08 99.0222 111.08C98.5662 111.08 98.1342 111.2 97.7262 111.44C97.3302 111.668 97.0062 112.004 96.7542 112.448C96.5142 112.892 96.3942 113.414 96.3942 114.014C96.3942 114.614 96.5142 115.136 96.7542 115.58C97.0062 116.024 97.3302 116.366 97.7262 116.606C98.1342 116.834 98.5662 116.948 99.0222 116.948C99.4902 116.948 99.9222 116.828 100.318 116.588C100.726 116.348 101.05 116.006 101.29 115.562C101.542 115.118 101.668 114.59 101.668 113.978ZM107.711 107.84C107.267 107.84 106.895 107.702 106.595 107.426C106.307 107.138 106.163 106.784 106.163 106.364C106.163 105.944 106.307 105.596 106.595 105.32C106.895 105.032 107.267 104.888 107.711 104.888C108.155 104.888 108.521 105.032 108.809 105.32C109.109 105.596 109.259 105.944 109.259 106.364C109.259 106.784 109.109 107.138 108.809 107.426C108.521 107.702 108.155 107.84 107.711 107.84ZM108.953 109.028V119H106.433V109.028H108.953ZM114.737 111.098V115.922C114.737 116.258 114.815 116.504 114.971 116.66C115.139 116.804 115.415 116.876 115.799 116.876H116.969V119H115.385C113.261 119 112.199 117.968 112.199 115.904V111.098H111.011V109.028H112.199V106.562H114.737V109.028H116.969V111.098H114.737ZM118.494 113.978C118.494 112.97 118.692 112.076 119.088 111.296C119.496 110.516 120.042 109.916 120.726 109.496C121.422 109.076 122.196 108.866 123.048 108.866C123.792 108.866 124.44 109.016 124.992 109.316C125.556 109.616 126.006 109.994 126.342 110.45V109.028H128.88V119H126.342V117.542C126.018 118.01 125.568 118.4 124.992 118.712C124.428 119.012 123.774 119.162 123.03 119.162C122.19 119.162 121.422 118.946 120.726 118.514C120.042 118.082 119.496 117.476 119.088 116.696C118.692 115.904 118.494 114.998 118.494 113.978ZM126.342 114.014C126.342 113.402 126.222 112.88 125.982 112.448C125.742 112.004 125.418 111.668 125.01 111.44C124.602 111.2 124.164 111.08 123.696 111.08C123.228 111.08 122.796 111.194 122.4 111.422C122.004 111.65 121.68 111.986 121.428 112.43C121.188 112.862 121.068 113.378 121.068 113.978C121.068 114.578 121.188 115.106 121.428 115.562C121.68 116.006 122.004 116.348 122.4 116.588C122.808 116.828 123.24 116.948 123.696 116.948C124.164 116.948 124.602 116.834 125.01 116.606C125.418 116.366 125.742 116.03 125.982 115.598C126.222 115.154 126.342 114.626 126.342 114.014ZM134.221 105.68V119H131.701V105.68H134.221ZM140.887 119.162C140.071 119.162 139.339 119.018 138.691 118.73C138.043 118.43 137.527 118.028 137.143 117.524C136.771 117.02 136.567 116.462 136.531 115.85H139.069C139.117 116.234 139.303 116.552 139.627 116.804C139.963 117.056 140.377 117.182 140.869 117.182C141.349 117.182 141.721 117.086 141.985 116.894C142.261 116.702 142.399 116.456 142.399 116.156C142.399 115.832 142.231 115.592 141.895 115.436C141.571 115.268 141.049 115.088 140.329 114.896C139.585 114.716 138.973 114.53 138.493 114.338C138.025 114.146 137.617 113.852 137.269 113.456C136.933 113.06 136.765 112.526 136.765 111.854C136.765 111.302 136.921 110.798 137.233 110.342C137.557 109.886 138.013 109.526 138.601 109.262C139.201 108.998 139.903 108.866 140.707 108.866C141.895 108.866 142.843 109.166 143.551 109.766C144.259 110.354 144.649 111.152 144.721 112.16H142.309C142.273 111.764 142.105 111.452 141.805 111.224C141.517 110.984 141.127 110.864 140.635 110.864C140.179 110.864 139.825 110.948 139.573 111.116C139.333 111.284 139.213 111.518 139.213 111.818C139.213 112.154 139.381 112.412 139.717 112.592C140.053 112.76 140.575 112.934 141.283 113.114C142.003 113.294 142.597 113.48 143.065 113.672C143.533 113.864 143.935 114.164 144.271 114.572C144.619 114.968 144.799 115.496 144.811 116.156C144.811 116.732 144.649 117.248 144.325 117.704C144.013 118.16 143.557 118.52 142.957 118.784C142.369 119.036 141.679 119.162 140.887 119.162Z" fill="#2AA7FF"/>
</svg>
