<svg xmlns="http://www.w3.org/2000/svg" width="610" height="769" fill="none">
  <g filter="url(#a)">
    <g clip-path="url(#b)">
      <rect width="242.5" height="304" x="40" y="25" fill="#fff" rx="8"/>
      <rect width="100" height="100" x="111.25" y="65" fill="#EBF7FF" rx="50"/>
      <g fill="#2AA7FF" clip-path="url(#c)">
        <path d="M175.62 92.36a6.38 6.38 0 0 0-4.44-1.75c-1.8 0-3.63.72-4.99 2.1l-.58.58-.59-.58a7.06 7.06 0 0 0-4.99-2.1c-1.6 0-3.2.57-4.44 1.75a6.77 6.77 0 0 0-.14 9.64l10.16 10.29 10.17-10.3a6.78 6.78 0 0 0-.16-9.63Zm9.98 25.17c-1.56-1.07-3.4-.77-5.03.18-1.64.95-11 9.05-11 9.05h-9.2c-.43 0-.9-.5-.9-.93 0-.5.44-.9.9-.9H166c1.97 0 4.18-1.3 4.18-3.61 0-2.46-2.2-3.62-4.19-3.62l-4.08.01c-1.37 0-2.77-.08-3.83-.66a10.44 10.44 0 0 0-4.84-1.16 10.3 10.3 0 0 0-7.4 3.07l-9.59 9.59 10.71 10.84 3.57-3.61h18.07c1.8 0 3.54-.68 4.88-1.88L185.7 120c.76-.67.7-1.9-.11-2.47Z"/>
      </g>
      <path fill="#1B3C74" d="M109.25 200.82H93.7v8.2a7.04 7.04 0 0 1 2.88-2.01 9.86 9.86 0 0 1 3.98-.82c2.56 0 4.66.56 6.29 1.68a9.7 9.7 0 0 1 3.55 4.32c.74 1.73 1.1 3.59 1.1 5.57 0 3.68-1.05 6.64-3.16 8.88-2.08 2.24-5.06 3.36-8.93 3.36-3.65 0-6.56-.91-8.74-2.74a10.27 10.27 0 0 1-3.7-7.15h6.54a5.2 5.2 0 0 0 1.92 3.07 6.3 6.3 0 0 0 3.88 1.16c1.9 0 3.32-.6 4.28-1.78a7.24 7.24 0 0 0 1.44-4.7c0-1.99-.5-3.5-1.5-4.52-.95-1.05-2.38-1.58-4.26-1.58a5.5 5.5 0 0 0-3.36 1 5.5 5.5 0 0 0-1.92 2.7h-6.44V194.9h21.7v5.9Zm7.37 11.23c0-5.54 1-9.87 2.98-13.01 2.01-3.14 5.34-4.7 9.98-4.7 4.64 0 7.95 1.56 9.94 4.7 2.01 3.14 3.02 7.47 3.02 13 0 5.58-1 9.94-3.02 13.11-1.99 3.17-5.3 4.75-9.94 4.75s-7.97-1.58-9.98-4.75c-1.99-3.17-2.98-7.53-2.98-13.1Zm19.3 0c0-2.37-.16-4.35-.48-5.95a7.8 7.8 0 0 0-1.83-3.99c-.9-1.02-2.24-1.53-4.03-1.53-1.8 0-3.15.5-4.08 1.53a8.36 8.36 0 0 0-1.82 3.99 33.1 33.1 0 0 0-.44 5.95c0 2.43.15 4.48.44 6.14a7.8 7.8 0 0 0 1.82 3.99c.93.99 2.29 1.48 4.08 1.48 1.8 0 3.15-.5 4.08-1.48a7.8 7.8 0 0 0 1.83-3.99c.28-1.66.43-3.71.43-6.14Zm11.73 0c0-5.54 1-9.87 2.98-13.01 2.01-3.14 5.34-4.7 9.98-4.7 4.64 0 7.95 1.56 9.94 4.7 2.01 3.14 3.02 7.47 3.02 13 0 5.58-1 9.94-3.02 13.11-1.99 3.17-5.3 4.75-9.94 4.75s-7.97-1.58-9.98-4.75c-1.99-3.17-2.98-7.53-2.98-13.1Zm19.3 0c0-2.37-.16-4.35-.48-5.95a7.8 7.8 0 0 0-1.83-3.99c-.9-1.02-2.24-1.53-4.03-1.53s-3.15.5-4.08 1.53a8.36 8.36 0 0 0-1.82 3.99c-.29 1.6-.43 3.58-.43 5.95 0 2.43.14 4.48.43 6.14a7.8 7.8 0 0 0 1.82 3.99c.93.99 2.29 1.48 4.08 1.48 1.8 0 3.15-.5 4.08-1.48a7.8 7.8 0 0 0 1.83-3.99c.28-1.66.43-3.71.43-6.14Zm11.73 0c0-5.54 1-9.87 2.98-13.01 2.02-3.14 5.34-4.7 9.98-4.7 4.64 0 7.96 1.56 9.94 4.7 2.01 3.14 3.02 7.47 3.02 13 0 5.58-1 9.94-3.02 13.11-1.99 3.17-5.3 4.75-9.94 4.75s-7.96-1.58-9.98-4.75c-1.98-3.17-2.98-7.53-2.98-13.1Zm19.3 0c0-2.37-.16-4.35-.48-5.95a7.8 7.8 0 0 0-1.82-3.99c-.9-1.02-2.25-1.53-4.04-1.53s-3.15.5-4.08 1.53a8.36 8.36 0 0 0-1.82 3.99c-.29 1.6-.43 3.58-.43 5.95 0 2.43.14 4.48.43 6.14a7.8 7.8 0 0 0 1.82 3.99c.93.99 2.3 1.48 4.08 1.48 1.8 0 3.16-.5 4.08-1.48a7.8 7.8 0 0 0 1.83-3.99c.28-1.66.43-3.71.43-6.14Zm37.6 3.79h-9.07v9.31h-6.33v-9.31h-9.07v-5.86h9.07v-9.3h6.33v9.3h9.08v5.86Z"/>
      <path fill="#77829D" d="M103.89 269.49V282h-2.05v-5.47h-5.89V282H93.9v-12.51h2.05v5.36h5.89v-5.36h2.05Zm2.02 7.5c0-.99.2-1.87.6-2.64a4.57 4.57 0 0 1 4.08-2.43c.78 0 1.45.16 2.03.47.59.3 1.06.68 1.4 1.13v-1.44h2.08V282h-2.07v-1.48a4.38 4.38 0 0 1-3.47 1.64 4.4 4.4 0 0 1-2.35-.65 4.8 4.8 0 0 1-1.7-1.83 5.9 5.9 0 0 1-.6-2.68Zm8.12.04a3.5 3.5 0 0 0-.44-1.78 2.9 2.9 0 0 0-4.05-1.15 2.9 2.9 0 0 0-1.11 1.13c-.28.5-.42 1.08-.42 1.77 0 .68.14 1.28.42 1.8.28.51.66.9 1.11 1.18a2.96 2.96 0 0 0 2.95 0 2.9 2.9 0 0 0 1.1-1.15c.3-.51.44-1.11.44-1.8Zm6.81-3.49a4.34 4.34 0 0 1 3.46-1.62c.86 0 1.65.22 2.36.65a4.4 4.4 0 0 1 1.69 1.78c.4.77.61 1.65.61 2.65s-.2 1.89-.61 2.68a4.55 4.55 0 0 1-4.05 2.48 4.37 4.37 0 0 1-3.46-1.6v6.16h-2.05v-14.64h2.05v1.46Zm6.03 3.46c0-.69-.14-1.28-.43-1.77-.28-.5-.65-.88-1.12-1.13a2.9 2.9 0 0 0-2.95 0 3 3 0 0 0-1.11 1.15 3.6 3.6 0 0 0-.42 1.78c0 .69.14 1.29.42 1.8a2.96 2.96 0 0 0 4.07 1.15c.46-.27.83-.67 1.11-1.18.29-.52.43-1.12.43-1.8Zm6.17-3.46a4.34 4.34 0 0 1 3.46-1.62c.86 0 1.65.22 2.36.65a4.4 4.4 0 0 1 1.69 1.78c.4.77.61 1.65.61 2.65s-.2 1.89-.61 2.68a4.55 4.55 0 0 1-4.05 2.48 4.37 4.37 0 0 1-3.46-1.6v6.16H131v-14.64h2.05v1.46Zm6.03 3.46c0-.69-.14-1.28-.43-1.77-.28-.5-.65-.88-1.12-1.13a2.9 2.9 0 0 0-2.95 0 3 3 0 0 0-1.11 1.15 3.6 3.6 0 0 0-.42 1.78c0 .69.14 1.29.42 1.8a2.96 2.96 0 0 0 4.07 1.15c.46-.27.83-.67 1.11-1.18.29-.52.43-1.12.43-1.8Zm13.05-4.92-6.09 14.58h-2.12l2.02-4.82-3.91-9.76h2.28l2.8 7.56 2.9-7.56h2.12Zm14.97 1.14a3.44 3.44 0 0 1-1.89 3.18c-.66.35-1.5.52-2.54.52h-2.27V282h-2.05v-12.51h4.32c.96 0 1.77.17 2.43.5a3.4 3.4 0 0 1 1.5 1.34c.33.56.5 1.19.5 1.89Zm-4.43 2.03c.78 0 1.36-.17 1.75-.52.38-.36.57-.87.57-1.51 0-1.37-.77-2.06-2.32-2.06h-2.27v4.09h2.27Zm5.7 1.75c0-1 .2-1.88.61-2.65a4.57 4.57 0 0 1 4.07-2.43 4.27 4.27 0 0 1 3.44 1.6v-1.44h2.07V282h-2.07v-1.48a4.38 4.38 0 0 1-3.47 1.64 4.4 4.4 0 0 1-2.34-.65 4.8 4.8 0 0 1-1.7-1.83 5.9 5.9 0 0 1-.6-2.68Zm8.12.03a3.5 3.5 0 0 0-.43-1.78 2.9 2.9 0 0 0-4.05-1.15 2.9 2.9 0 0 0-1.12 1.13c-.27.5-.41 1.08-.41 1.77 0 .68.14 1.28.41 1.8.29.51.66.9 1.12 1.18a2.96 2.96 0 0 0 2.95 0 2.9 2.9 0 0 0 1.1-1.15c.29-.51.43-1.11.43-1.8Zm7.16-3.27v5.49c0 .37.08.64.25.8.18.16.48.24.9.24h1.26V282h-1.62c-.92 0-1.63-.22-2.12-.65-.5-.43-.74-1.13-.74-2.1v-5.5h-1.17v-1.67h1.17v-2.46h2.07v2.46h2.41v1.68h-2.41Zm5.35-3a1.27 1.27 0 0 1-1.31-1.31 1.27 1.27 0 0 1 1.31-1.31c.36 0 .66.13.91.38.26.25.38.56.38.93 0 .38-.12.69-.38.94-.25.25-.55.38-.91.38Zm1 1.32V282h-2.05v-9.92H190Zm11.79 4.72c0 .37-.03.7-.07 1h-7.58a2.73 2.73 0 0 0 2.83 2.63c1.1 0 1.88-.46 2.33-1.38h2.22a4.5 4.5 0 0 1-4.55 3.11 4.7 4.7 0 0 1-4.32-2.43 5.6 5.6 0 0 1-.64-2.7c0-1.02.2-1.91.62-2.68.42-.78 1-1.38 1.74-1.8a5.25 5.25 0 0 1 2.6-.63c.93 0 1.76.2 2.5.61.73.41 1.3.99 1.7 1.73.41.73.62 1.58.62 2.54Zm-2.14-.65a2.34 2.34 0 0 0-.81-1.82 2.9 2.9 0 0 0-1.97-.68c-.7 0-1.3.23-1.81.68-.5.45-.8 1.05-.9 1.82h5.49Zm9.16-4.23c.78 0 1.48.16 2.09.49.62.32 1.11.8 1.46 1.44.35.63.52 1.4.52 2.3V282h-2.03v-5.54c0-.9-.23-1.57-.67-2.04a2.35 2.35 0 0 0-1.82-.72c-.77 0-1.38.24-1.83.72-.45.47-.67 1.15-.67 2.04V282h-2.05v-9.92h2.05v1.14c.34-.41.76-.73 1.28-.96a4.18 4.18 0 0 1 1.67-.34Zm9.08 1.84v5.49c0 .37.09.64.25.8.18.16.48.24.9.24h1.26V282h-1.62c-.92 0-1.63-.22-2.12-.65-.5-.43-.74-1.13-.74-2.1v-5.5h-1.17v-1.67h1.17v-2.46h2.07v2.46h2.41v1.68h-2.4Zm7.9 8.4c-.78 0-1.48-.14-2.1-.41a3.8 3.8 0 0 1-1.46-1.15 2.91 2.91 0 0 1-.57-1.64h2.12c.03.42.23.77.6 1.06.37.28.83.41 1.38.41.57 0 1.02-.1 1.33-.32.32-.23.49-.52.49-.86 0-.38-.18-.65-.54-.83a9.6 9.6 0 0 0-1.68-.6c-.74-.2-1.35-.4-1.81-.59-.47-.2-.88-.49-1.23-.88-.34-.4-.5-.92-.5-1.57 0-.53.15-1 .47-1.44a3 3 0 0 1 1.33-1.04 5.08 5.08 0 0 1 2.01-.38 4.1 4.1 0 0 1 2.72.86c.7.57 1.07 1.34 1.12 2.33h-2.06c-.03-.45-.21-.8-.53-1.07-.33-.26-.77-.4-1.32-.4-.54 0-.95.11-1.24.31a.95.95 0 0 0-.43.81c0 .27.1.49.28.67.2.18.43.32.7.43.28.1.7.22 1.23.38.72.2 1.3.39 1.76.6.47.19.88.47 1.21.86.34.38.51.9.52 1.53a2.5 2.5 0 0 1-.47 1.51c-.3.44-.75.8-1.33 1.04-.56.26-1.23.38-2 .38Z"/>
    </g>
  </g>
  <g filter="url(#d)">
    <g clip-path="url(#e)">
      <rect width="252.5" height="304" x="317.5" y="74" fill="#fff" rx="8"/>
      <rect width="110" height="110" x="388.75" y="114" fill="#FFF2F0" rx="50"/>
      <path fill="#FF684C" d="M466.25 195.25h-22.5a1.88 1.88 0 0 1-1.88-1.88v-48.75c0-1.03.84-1.87 1.88-1.87h22.5c1.04 0 1.88.84 1.88 1.88v48.75c0 1.03-.84 1.87-1.88 1.87Zm-20.63-3.75h18.75v-45h-18.75v45Z"/>
      <path fill="#FF684C" d="M458.75 195.25h-7.5a1.88 1.88 0 0 1-1.88-1.88v-11.25c0-1.03.84-1.87 1.88-1.87h7.5c1.04 0 1.88.84 1.88 1.88v11.25c0 1.03-.84 1.87-1.88 1.87Zm-5.63-3.75h3.75V184h-3.75v7.5Zm-9.37 3.75h-22.5a1.88 1.88 0 0 1-1.88-1.88v-30c0-1.03.84-1.87 1.88-1.87h22.5c1.04 0 1.88.84 1.88 1.88v30c0 1.03-.84 1.87-1.88 1.87Zm-20.63-3.75h18.75v-26.25h-18.75v26.25Zm35.63-37.5h-1.88v-1.88a1.88 1.88 0 0 0-3.75 0V154h-1.87a1.88 1.88 0 0 0 0 3.75h1.88v1.88a1.88 1.88 0 0 0 3.75 0v-1.88h1.87a1.88 1.88 0 0 0 0-3.75Z"/>
      <path fill="#FF684C" d="M428.75 176.5a1.88 1.88 0 0 1-1.88-1.88v-3.75a1.88 1.88 0 0 1 3.75 0v3.75c0 1.04-.83 1.88-1.87 1.88Zm0 11.25a1.88 1.88 0 0 1-1.88-1.88v-3.75a1.88 1.88 0 0 1 3.75 0v3.75c0 1.04-.83 1.88-1.87 1.88Zm7.5-11.25a1.88 1.88 0 0 1-1.88-1.88v-3.75a1.88 1.88 0 0 1 3.75 0v3.75c0 1.04-.83 1.88-1.87 1.88Zm0 11.25a1.88 1.88 0 0 1-1.88-1.88v-3.75a1.88 1.88 0 0 1 3.75 0v3.75c0 1.04-.83 1.88-1.87 1.88Zm22.5-11.25h-7.5a1.88 1.88 0 0 1 0-3.75h7.5a1.88 1.88 0 0 1 0 3.75Z"/>
      <path fill="#1B3C74" d="M387.51 271.42a198.7 198.7 0 0 0 7.35-6.39 30.39 30.39 0 0 0 4.56-5.37 9.97 9.97 0 0 0 1.82-5.48c0-1.63-.38-2.9-1.15-3.84-.77-.92-1.95-1.39-3.55-1.39-1.6 0-2.84.55-3.7 1.63-.86 1.06-1.31 2.52-1.34 4.37h-6.53c.13-3.84 1.26-6.75 3.4-8.73 2.18-1.99 4.93-2.98 8.26-2.98 3.65 0 6.45.98 8.4 2.93 1.95 1.92 2.93 4.46 2.93 7.63 0 2.5-.67 4.88-2.02 7.15a28.89 28.89 0 0 1-4.6 5.95 152.05 152.05 0 0 1-6.77 6.05h14.16v5.57h-23.71v-5l2.5-2.1Zm25.45-10.37c0-5.54 1-9.87 2.98-13.01 2.01-3.14 5.34-4.7 9.98-4.7 4.64 0 7.95 1.56 9.94 4.7 2.01 3.14 3.02 7.47 3.02 13 0 5.58-1 9.94-3.02 13.11-1.99 3.17-5.3 4.75-9.94 4.75s-7.97-1.58-9.98-4.75c-1.99-3.17-2.98-7.53-2.98-13.1Zm19.3 0c0-2.37-.16-4.35-.48-5.95a7.8 7.8 0 0 0-1.83-3.99c-.9-1.02-2.24-1.53-4.03-1.53s-3.15.5-4.08 1.53a8.36 8.36 0 0 0-1.82 3.99c-.29 1.6-.43 3.58-.43 5.95 0 2.43.14 4.48.43 6.14a7.8 7.8 0 0 0 1.82 3.99c.93.99 2.29 1.48 4.08 1.48 1.8 0 3.15-.5 4.08-1.48a7.8 7.8 0 0 0 1.83-3.99c.28-1.66.43-3.71.43-6.14Zm11.73 0c0-5.54 1-9.87 2.98-13.01 2.01-3.14 5.34-4.7 9.98-4.7 4.64 0 7.95 1.56 9.94 4.7 2.01 3.14 3.02 7.47 3.02 13 0 5.58-1 9.94-3.02 13.11-1.99 3.17-5.3 4.75-9.94 4.75s-7.96-1.58-9.98-4.75c-1.99-3.17-2.98-7.53-2.98-13.1Zm19.3 0c0-2.37-.16-4.35-.48-5.95a7.8 7.8 0 0 0-1.82-3.99c-.9-1.02-2.25-1.53-4.04-1.53s-3.15.5-4.08 1.53a8.36 8.36 0 0 0-1.82 3.99c-.29 1.6-.43 3.58-.43 5.95 0 2.43.14 4.48.43 6.14a7.8 7.8 0 0 0 1.82 3.99c.93.99 2.3 1.48 4.08 1.48 1.8 0 3.16-.5 4.08-1.48a7.8 7.8 0 0 0 1.83-3.99c.28-1.66.43-3.71.43-6.14Zm37.6 3.79h-9.06v9.31h-6.34v-9.31h-9.07v-5.86h9.07v-9.3h6.33v9.3h9.08v5.86Z"/>
      <path fill="#77829D" d="M413.19 317.99v12.51h-2.06v-5.47h-5.88v5.47h-2.05v-12.51h2.05v5.36h5.88V318h2.06Zm7 12.67c-.94 0-1.78-.2-2.54-.63a4.67 4.67 0 0 1-1.78-1.8 5.48 5.48 0 0 1-.65-2.7c0-1 .22-1.9.67-2.68a4.6 4.6 0 0 1 1.81-1.8 5.28 5.28 0 0 1 2.58-.63c.95 0 1.8.21 2.57.63a4.6 4.6 0 0 1 1.82 1.8c.44.78.67 1.67.67 2.68 0 1.01-.23 1.9-.69 2.68a4.78 4.78 0 0 1-1.87 1.82c-.78.42-1.64.63-2.6.63Zm0-1.78a3 3 0 0 0 2.6-1.51c.3-.5.44-1.12.44-1.84s-.14-1.32-.41-1.82c-.28-.5-.64-.88-1.1-1.13a3 3 0 0 0-1.48-.38 3 3 0 0 0-1.47.38c-.45.25-.8.63-1.06 1.13-.27.5-.4 1.1-.4 1.82 0 1.07.27 1.9.8 2.49a2.8 2.8 0 0 0 2.08.86Zm10.78 1.78c-.78 0-1.49-.14-2.11-.41a3.8 3.8 0 0 1-1.46-1.15 2.91 2.91 0 0 1-.57-1.64h2.12c.04.42.23.77.6 1.06.37.28.83.41 1.38.41.58 0 1.02-.1 1.33-.32.33-.23.49-.52.49-.86 0-.38-.18-.65-.54-.83a9.6 9.6 0 0 0-1.68-.6c-.74-.2-1.35-.4-1.81-.59-.47-.2-.88-.49-1.23-.88-.33-.4-.5-.92-.5-1.57 0-.53.15-1 .47-1.44a3 3 0 0 1 1.33-1.04 5.08 5.08 0 0 1 2.01-.38 4.1 4.1 0 0 1 2.72.86c.7.57 1.07 1.34 1.12 2.33h-2.05a1.5 1.5 0 0 0-.54-1.07c-.33-.26-.77-.4-1.32-.4-.54 0-.95.11-1.24.31a.95.95 0 0 0-.43.81c0 .27.1.49.29.67.19.18.42.32.7.43.27.1.68.22 1.22.38.72.2 1.31.39 1.77.6.46.19.87.47 1.2.86.34.38.51.9.52 1.53 0 .56-.15 1.07-.46 1.51-.32.44-.76.8-1.34 1.04-.56.26-1.23.38-2 .38Zm8.06-8.62a4.34 4.34 0 0 1 3.46-1.62c.86 0 1.65.22 2.36.65a4.4 4.4 0 0 1 1.69 1.78c.4.77.61 1.65.61 2.65s-.2 1.89-.61 2.68a4.48 4.48 0 0 1-4.05 2.48 4.37 4.37 0 0 1-3.46-1.6v6.16h-2.05v-14.64h2.05v1.46Zm6.03 3.46c0-.69-.14-1.28-.43-1.77-.27-.5-.65-.88-1.12-1.13a2.9 2.9 0 0 0-2.95 0c-.45.26-.82.65-1.11 1.15a3.6 3.6 0 0 0-.42 1.78c0 .69.14 1.29.42 1.8a2.96 2.96 0 0 0 4.07 1.15c.46-.27.84-.67 1.11-1.18.29-.52.43-1.12.43-1.8Zm5.16-6.23c-.37 0-.68-.13-.93-.38a1.27 1.27 0 0 1-.38-.94c0-.37.13-.68.38-.93s.56-.38.93-.38c.36 0 .67.13.92.38s.38.56.38.93c0 .38-.13.69-.38.94s-.56.38-.92.38Zm1.01 1.31v9.92h-2.05v-9.92h2.05Zm5.09 1.68v5.49c0 .37.08.64.25.8.18.16.48.24.9.24h1.26v1.71h-1.62c-.92 0-1.63-.22-2.12-.65-.5-.43-.74-1.13-.74-2.1v-5.5h-1.17v-1.67h1.17v-2.46h2.07v2.46h2.41v1.68h-2.41Zm3.62 3.24c0-1 .2-1.88.61-2.65a4.57 4.57 0 0 1 4.07-2.43c.78 0 1.46.16 2.03.47.6.3 1.06.68 1.4 1.13v-1.44h2.08v9.92h-2.07v-1.48a4.38 4.38 0 0 1-3.47 1.64 4.4 4.4 0 0 1-2.35-.65 4.8 4.8 0 0 1-1.69-1.83 5.9 5.9 0 0 1-.61-2.68Zm8.12.03a3.6 3.6 0 0 0-.43-1.78 2.9 2.9 0 0 0-4.05-1.15 2.9 2.9 0 0 0-1.12 1.13c-.28.5-.41 1.08-.41 1.77 0 .68.13 1.28.41 1.8.29.51.66.9 1.12 1.18a2.96 2.96 0 0 0 2.95 0 2.9 2.9 0 0 0 1.1-1.15c.28-.51.43-1.11.43-1.8Zm6.81-8.35v13.32h-2.05v-13.32h2.06Zm6.3 13.48c-.78 0-1.48-.14-2.1-.41a3.8 3.8 0 0 1-1.46-1.15 2.91 2.91 0 0 1-.58-1.64h2.12c.04.42.24.77.6 1.06.37.28.83.41 1.38.41.58 0 1.02-.1 1.33-.32.33-.23.5-.52.5-.86 0-.38-.19-.65-.55-.83a9.6 9.6 0 0 0-1.67-.6c-.75-.2-1.35-.4-1.82-.59-.47-.2-.88-.49-1.23-.88-.33-.4-.5-.92-.5-1.57 0-.53.16-1 .47-1.44.31-.44.75-.79 1.33-1.04a5.08 5.08 0 0 1 2.02-.38c1.13 0 2.03.29 2.72.86.7.57 1.06 1.34 1.11 2.33h-2.05a1.5 1.5 0 0 0-.54-1.07c-.32-.26-.76-.4-1.31-.4s-.96.11-1.25.31a.95.95 0 0 0-.43.81c0 .27.1.49.29.67.2.18.43.32.7.43.28.1.69.22 1.23.38.71.2 1.3.39 1.76.6.47.19.87.47 1.2.86a2.58 2.58 0 0 1 .06 3.04c-.31.44-.76.8-1.33 1.04-.57.26-1.23.38-2 .38Z"/>
    </g>
  </g>
  <g filter="url(#f)">
    <g clip-path="url(#g)">
      <rect width="242.5" height="304" x="40" y="364" fill="#fff" rx="8"/>
      <rect width="110" height="110" x="106.25" y="404" fill="#FFF7E6" rx="50"/>
      <path fill="#FFB200" d="M165 466.5h7.5v16.88h3.75v-18.75c0-1.04-.84-1.88-1.88-1.88h-11.25c-1.03 0-1.87.84-1.87 1.88v18.75H165V466.5Z"/>
      <path fill="#FFB200" d="M181.88 447.75h-9.38v3.75h7.5v30h-37.5v-30h7.5v-3.75h-9.38c-1.03 0-1.87.84-1.87 1.88v33.75c0 1.03.84 1.87 1.88 1.87h41.25c1.03 0 1.87-.84 1.87-1.88v-33.75c0-1.03-.84-1.87-1.88-1.87Z"/>
      <path fill="#FFB200" d="M150 447.75h-11.25V444H150v-3.75h-13.13c-1.03 0-1.87.84-1.87 1.88v7.5c0 1.03.84 1.87 1.88 1.87H150v-3.75Zm35.63-7.5H172.5V444h11.25v3.75H172.5v3.75h13.13c1.03 0 1.87-.84 1.87-1.88v-7.5c0-1.03-.84-1.87-1.88-1.87Z"/>
      <path fill="#FFB200" d="M172.5 459H150a1.87 1.87 0 0 1-1.88-1.88v-22.5c0-1.03.84-1.87 1.88-1.87h22.5c1.04 0 1.88.84 1.88 1.88v22.5c0 1.03-.84 1.87-1.88 1.87Zm-20.63-3.75h18.75V436.5h-18.75v18.75Z"/>
      <path fill="#FFB200" d="M165 444h-1.88v-1.88a1.87 1.87 0 1 0-3.75 0V444h-1.87a1.87 1.87 0 1 0 0 3.75h1.88v1.88a1.87 1.87 0 1 0 3.75 0v-1.88H165a1.87 1.87 0 1 0 0-3.75Zm-9.37 30h-7.5a1.87 1.87 0 0 1-1.88-1.88v-3.75a5.63 5.63 0 0 1 11.25 0v3.75c0 1.04-.84 1.88-1.88 1.88Zm-5.63-3.75h3.75v-1.88a1.88 1.88 0 0 0-3.75 0v1.88Z"/>
      <path fill="#1B3C74" d="M91.81 540.2V534h11.57v35h-6.91v-28.8h-4.66Zm18.21 10.85c0-5.54 1-9.87 2.98-13.01 2.01-3.14 5.34-4.7 9.98-4.7 4.64 0 7.95 1.56 9.94 4.7 2.01 3.14 3.02 7.47 3.02 13 0 5.58-1 9.94-3.02 13.11-1.99 3.17-5.3 4.75-9.94 4.75s-7.97-1.58-9.98-4.75c-1.99-3.17-2.98-7.53-2.98-13.1Zm19.3 0c0-2.37-.16-4.35-.48-5.95a7.8 7.8 0 0 0-1.83-3.99c-.9-1.02-2.24-1.53-4.03-1.53-1.8 0-3.15.5-4.08 1.53a8.36 8.36 0 0 0-1.82 3.99 33.1 33.1 0 0 0-.44 5.95c0 2.43.15 4.48.44 6.14a7.8 7.8 0 0 0 1.82 3.99c.93.99 2.29 1.48 4.08 1.48 1.8 0 3.15-.5 4.08-1.48a7.8 7.8 0 0 0 1.82-3.99c.3-1.66.44-3.71.44-6.14Zm11.73 0c0-5.54 1-9.87 2.98-13.01 2.01-3.14 5.34-4.7 9.98-4.7 4.64 0 7.95 1.56 9.94 4.7 2.01 3.14 3.02 7.47 3.02 13 0 5.58-1 9.94-3.02 13.11-1.99 3.17-5.3 4.75-9.94 4.75s-7.97-1.58-9.98-4.75c-1.99-3.17-2.98-7.53-2.98-13.1Zm19.3 0c0-2.37-.16-4.35-.48-5.95a7.8 7.8 0 0 0-1.83-3.99c-.9-1.02-2.24-1.53-4.03-1.53s-3.15.5-4.08 1.53a8.36 8.36 0 0 0-1.82 3.99c-.29 1.6-.43 3.58-.43 5.95 0 2.43.14 4.48.43 6.14a7.8 7.8 0 0 0 1.82 3.99c.93.99 2.29 1.48 4.08 1.48 1.8 0 3.15-.5 4.08-1.48a7.8 7.8 0 0 0 1.83-3.99c.28-1.66.43-3.71.43-6.14Zm11.73 0c0-5.54 1-9.87 2.98-13.01 2.01-3.14 5.34-4.7 9.98-4.7 4.64 0 7.96 1.56 9.94 4.7 2.02 3.14 3.02 7.47 3.02 13 0 5.58-1 9.94-3.02 13.11-1.98 3.17-5.3 4.75-9.94 4.75s-7.97-1.58-9.98-4.75c-1.99-3.17-2.98-7.53-2.98-13.1Zm19.3 0c0-2.37-.16-4.35-.48-5.95a7.8 7.8 0 0 0-1.83-3.99c-.9-1.02-2.23-1.53-4.03-1.53-1.79 0-3.15.5-4.08 1.53a8.36 8.36 0 0 0-1.82 3.99c-.29 1.6-.43 3.58-.43 5.95 0 2.43.14 4.48.43 6.14a7.8 7.8 0 0 0 1.82 3.99c.93.99 2.3 1.48 4.08 1.48 1.8 0 3.16-.5 4.08-1.48a7.8 7.8 0 0 0 1.83-3.99c.29-1.66.43-3.71.43-6.14Zm37.6 3.79h-9.07v9.31h-6.33v-9.31h-9.07v-5.86h9.07v-9.3h6.33v9.3H229v5.86Z"/>
      <path fill="#77829D" d="M107.99 618.84h4.23v1.66h-6.28v-12.51h2.05v10.85Zm5.26-3.34c0-1 .2-1.88.61-2.65a4.57 4.57 0 0 1 4.07-2.43c.78 0 1.46.16 2.03.47.6.3 1.06.68 1.4 1.13v-1.44h2.08v9.92h-2.07v-1.48a4.38 4.38 0 0 1-3.47 1.64 4.4 4.4 0 0 1-2.34-.65 4.8 4.8 0 0 1-1.7-1.83 5.9 5.9 0 0 1-.6-2.68Zm8.12.03a3.6 3.6 0 0 0-.43-1.78 2.9 2.9 0 0 0-4.05-1.15 2.9 2.9 0 0 0-1.12 1.13c-.27.5-.41 1.08-.41 1.77 0 .68.14 1.28.41 1.8.29.51.66.9 1.12 1.18a2.96 2.96 0 0 0 2.95 0 2.9 2.9 0 0 0 1.1-1.15c.28-.51.43-1.11.43-1.8Zm6.82-3.47c.34-.48.82-.87 1.42-1.17a4.41 4.41 0 0 1 2.03-.47 4.42 4.42 0 0 1 4.05 2.43c.41.77.61 1.65.61 2.65s-.2 1.89-.6 2.68a4.7 4.7 0 0 1-1.7 1.83c-.7.44-1.5.65-2.36.65-.77 0-1.45-.15-2.05-.45a3.95 3.95 0 0 1-1.4-1.15v1.44h-2.06v-13.32h2.06v4.88Zm6.03 3.44c0-.69-.15-1.28-.44-1.77-.27-.5-.64-.88-1.11-1.13a2.9 2.9 0 0 0-2.95 0c-.46.26-.83.65-1.12 1.15a3.6 3.6 0 0 0-.41 1.78c0 .69.13 1.29.41 1.8a2.96 2.96 0 0 0 4.07 1.15c.47-.27.84-.67 1.11-1.18.3-.52.44-1.12.44-1.8Zm8.41 5.16a5 5 0 0 1-2.53-.63 4.67 4.67 0 0 1-1.78-1.8 5.48 5.48 0 0 1-.65-2.7c0-1 .22-1.9.66-2.68a4.6 4.6 0 0 1 1.82-1.8 5.28 5.28 0 0 1 2.57-.63c.95 0 1.81.21 2.58.63a4.6 4.6 0 0 1 1.82 1.8c.44.78.66 1.67.66 2.68 0 1.01-.22 1.9-.68 2.68a4.78 4.78 0 0 1-1.87 1.82 5.4 5.4 0 0 1-2.6.63Zm0-1.78a3 3 0 0 0 2.62-1.51c.28-.5.43-1.12.43-1.84s-.14-1.32-.42-1.82c-.27-.5-.64-.88-1.1-1.13a3 3 0 0 0-1.47-.38 3 3 0 0 0-1.48.38c-.44.25-.8.63-1.06 1.13-.26.5-.4 1.1-.4 1.82 0 1.07.28 1.9.81 2.49a2.8 2.8 0 0 0 2.07.86Zm9.23-6.86c.3-.5.7-.9 1.2-1.17.5-.29 1.09-.43 1.77-.43v2.12h-.52c-.8 0-1.41.2-1.84.62-.4.4-.6 1.11-.6 2.12v5.22h-2.06v-9.92h2.05v1.44Zm4.18 3.48c0-1 .2-1.88.6-2.65a4.57 4.57 0 0 1 4.08-2.43c.78 0 1.45.16 2.03.47.59.3 1.06.68 1.4 1.13v-1.44h2.07v9.92h-2.07v-1.48a4.38 4.38 0 0 1-3.47 1.64 4.4 4.4 0 0 1-2.34-.65 4.8 4.8 0 0 1-1.7-1.83 5.9 5.9 0 0 1-.6-2.68Zm8.11.03a3.5 3.5 0 0 0-.43-1.78 2.9 2.9 0 0 0-4.05-1.15 2.9 2.9 0 0 0-1.11 1.13c-.28.5-.42 1.08-.42 1.77 0 .68.14 1.28.42 1.8.28.51.66.9 1.11 1.18a2.96 2.96 0 0 0 2.95 0 2.9 2.9 0 0 0 1.1-1.15c.29-.51.43-1.11.43-1.8Zm7.16-3.27v5.49c0 .37.09.64.25.8.19.16.48.24.9.24h1.26v1.71h-1.62c-.92 0-1.63-.22-2.12-.65-.5-.43-.74-1.13-.74-2.1v-5.5h-1.17v-1.67h1.17v-2.46h2.07v2.46h2.41v1.68h-2.4Zm8.6 8.4c-.93 0-1.77-.2-2.53-.63a4.67 4.67 0 0 1-1.78-1.8 5.48 5.48 0 0 1-.65-2.7c0-1 .22-1.9.67-2.68a4.6 4.6 0 0 1 1.81-1.8 5.28 5.28 0 0 1 2.58-.63c.95 0 1.8.21 2.57.63a4.6 4.6 0 0 1 1.82 1.8c.44.78.67 1.67.67 2.68 0 1.01-.23 1.9-.69 2.68a4.78 4.78 0 0 1-1.87 1.82c-.78.42-1.64.63-2.6.63Zm0-1.78a3 3 0 0 0 2.62-1.51c.29-.5.43-1.12.43-1.84s-.14-1.32-.41-1.82c-.28-.5-.65-.88-1.1-1.13a3 3 0 0 0-1.48-.38 3 3 0 0 0-1.47.38c-.45.25-.8.63-1.07 1.13-.26.5-.4 1.1-.4 1.82 0 1.07.28 1.9.82 2.49.55.57 1.24.86 2.07.86Zm9.24-6.86c.3-.5.7-.9 1.19-1.17a3.5 3.5 0 0 1 1.78-.43v2.12h-.53c-.8 0-1.41.2-1.83.62-.4.4-.61 1.11-.61 2.12v5.22h-2.06v-9.92h2.06v1.44Zm5.9-2.75c-.38 0-.69-.13-.94-.38a1.27 1.27 0 0 1-.38-.94c0-.37.13-.68.38-.93s.56-.38.94-.38c.36 0 .66.13.91.38.26.25.38.56.38.93 0 .38-.12.69-.38.94-.25.25-.55.38-.91.38Zm1 1.31v9.92H194v-9.92h2.06Zm11.79 4.72c0 .37-.03.7-.07 1h-7.58a2.73 2.73 0 0 0 2.82 2.63c1.1 0 1.89-.46 2.34-1.38h2.22a4.5 4.5 0 0 1-4.56 3.11 4.7 4.7 0 0 1-4.32-2.43 5.6 5.6 0 0 1-.63-2.7c0-1.02.2-1.91.62-2.68.42-.78 1-1.38 1.74-1.8a5.25 5.25 0 0 1 2.6-.63c.93 0 1.76.2 2.5.61.73.41 1.3.99 1.7 1.73.41.73.62 1.58.62 2.54Zm-2.14-.65a2.34 2.34 0 0 0-.81-1.82 2.9 2.9 0 0 0-1.96-.68c-.71 0-1.32.23-1.82.68-.5.45-.8 1.05-.9 1.82h5.49Zm7.76 6.01c-.78 0-1.48-.14-2.1-.41a3.8 3.8 0 0 1-1.47-1.15 2.91 2.91 0 0 1-.57-1.64h2.12c.04.42.24.77.6 1.06.37.28.83.41 1.38.41.58 0 1.02-.1 1.33-.32.33-.23.49-.52.49-.86 0-.38-.18-.65-.54-.83a9.6 9.6 0 0 0-1.67-.6c-.75-.2-1.35-.4-1.82-.59-.47-.2-.88-.49-1.23-.88-.33-.4-.5-.92-.5-1.57 0-.53.16-1 .47-1.44.31-.44.75-.79 1.33-1.04a5.08 5.08 0 0 1 2.02-.38 4.1 4.1 0 0 1 2.71.86c.7.57 1.07 1.34 1.12 2.33h-2.05a1.5 1.5 0 0 0-.54-1.07c-.33-.26-.76-.4-1.32-.4-.54 0-.95.11-1.24.31a.95.95 0 0 0-.43.81c0 .27.1.49.29.67.19.18.42.32.7.43.28.1.68.22 1.22.38.72.2 1.31.39 1.77.6.47.19.87.47 1.2.86a2.58 2.58 0 0 1 .06 3.04c-.31.44-.76.8-1.33 1.04-.57.26-1.23.38-2 .38Z"/>
    </g>
  </g>
  <g filter="url(#h)">
    <g clip-path="url(#i)">
      <rect width="252.5" height="304" x="317.5" y="410" fill="#fff" rx="8"/>
      <rect width="100" height="100" x="393.75" y="450" fill="#EBFAF1" rx="50"/>
      <g fill="#4CD080" clip-path="url(#j)">
        <path d="M428.62 511.14c.34-.33.7-.6 1.08-.79.15-.33.4-.6.7-.79.01-1.33.22-2.48.6-3.43-4.3 2.2-7.25 6.7-7.25 11.9 0 6.65 4.8 6.97 11.1 6.97h17.8c6.29 0 11.1-.32 11.1-6.97 0-5.25-3-9.8-7.38-11.97.42.99.67 2.19.73 3.59a3.25 3.25 0 0 1-.72 6.42 3.25 3.25 0 0 1-.77-6.4c-.06-1.4-.38-3.51-1.73-4.56a12.3 12.3 0 0 0-2.12-.38c-.05 2.44-8.01 8.44-8.01 8.44s-7.96-6-8.01-8.44c-.8.08-1.59.22-2.35.44-.98.78-1.48 2.25-1.51 4.37.28.16.52.42.66.75 1.05.5 1.99 1.56 2.7 3.07.12.26.14.55.05.8.43 1.12.67 2.34.67 3.36 0 1.43 0 2.79-1.55 3.14a.93.93 0 0 1-.6.22h-1.01a.95.95 0 0 1-.95-.95v-.07a.96.96 0 0 1 .94-.88h1.03c.11 0 .21.02.31.06.07-.02.09-.04.09-.04.12-.2.12-1.07.12-1.47 0-.84-.2-1.84-.57-2.77a1.1 1.1 0 0 1-.43-.46c-.63-1.33-1.48-2.19-2.17-2.19-.71 0-1.6.93-2.23 2.3-.1.23-.29.41-.5.52a7.72 7.72 0 0 0-.38 4.08s.02.02.1.04c.12-.04.23-.07.35-.07h1.03c.48 0 .88.36.94.84v.08c0 .56-.42.99-.93.99h-1.04c-.2 0-.4-.07-.57-.2-.6-.1-1-.38-1.27-.8-.33-.52-.38-1.2-.38-2.35 0-1.01.23-2.18.65-3.3a1 1 0 0 1 .06-.71c.44-.96 1-1.79 1.62-2.4Zm21.56 7.86h6.93a1 1 0 0 1 1 1 1 1 0 0 1-1 1h-6.93a1 1 0 0 1-.99-1 1 1 0 0 1 1-1Z"/>
        <path d="M453.57 489.65c-.46 0-1.14-.16-1.85-.92-.53-.42-4.03-3.06-7.97-3.06-3.91 0-7.45 2.65-7.97 3.06-.71.75-1.39.9-1.85.9h-.17a1.97 1.97 0 0 1-.86-.3c-.1.58-.15 1.17-.15 1.78 0 6.14 4.93 15.38 11 15.38 6.09 0 11.02-9.24 11.02-15.38 0-.61-.06-1.2-.15-1.79-.27.19-.59.3-.87.32h-.18Zm2.81 24.67a1.5 1.5 0 0 0 1.49-1.5c0-.82-.67-1.5-1.49-1.5a1.5 1.5 0 0 0-1.48 1.5c0 .83.66 1.5 1.48 1.5Z"/>
        <path d="M452.16 476.68s-4.02-1.47-7.65-1.65c-.26-.01-.5-.03-.76-.03l-.76.02c-3.63.2-7.65 1.65-7.65 1.65a3.26 3.26 0 0 0-1.98 2.86v7.54c0 .68.2 1.04.53 1.07h.04c.23 0 .52-.16.83-.51 0 0 4.14-3.46 8.99-3.46 4.85 0 9 3.46 9 3.46.3.35.59.5.82.5h.04c.32-.02.53-.38.53-1.06v-7.53c0-1.18-.88-2.48-1.98-2.86Zm-5.8 3.96h-1.57v1.6c0 .17-.12.3-.26.3h-1.55c-.15 0-.26-.13-.26-.3v-1.6h-1.56a.28.28 0 0 1-.29-.27v-1.58c0-.15.13-.27.29-.27h1.56v-1.6c0-.16.12-.29.26-.29h1.55c.15 0 .26.13.26.3v1.6h1.56c.16 0 .29.12.29.27v1.57c0 .15-.13.27-.29.27Z"/>
      </g>
      <path fill="#1B3C74" d="M408.3 585.1 395.52 615h-6.82l12.86-29.14h-16.41v-5.76h23.13v5Zm4.02 11.95c0-5.54 1-9.87 2.98-13.01 2.01-3.14 5.34-4.7 9.98-4.7 4.64 0 7.95 1.56 9.94 4.7 2.01 3.14 3.02 7.47 3.02 13 0 5.58-1 9.94-3.03 13.11-1.98 3.17-5.3 4.75-9.93 4.75-4.64 0-7.97-1.58-9.98-4.75-1.99-3.17-2.98-7.53-2.98-13.1Zm19.3 0c0-2.37-.17-4.35-.49-5.95a7.8 7.8 0 0 0-1.82-3.99c-.9-1.02-2.24-1.53-4.03-1.53-1.8 0-3.15.5-4.08 1.53a8.36 8.36 0 0 0-1.82 3.99 33.1 33.1 0 0 0-.44 5.95c0 2.43.15 4.48.44 6.14a7.8 7.8 0 0 0 1.82 3.99c.93.99 2.29 1.48 4.08 1.48 1.8 0 3.15-.5 4.08-1.48a7.8 7.8 0 0 0 1.82-3.99c.3-1.66.44-3.71.44-6.14Zm11.73 0c0-5.54 1-9.87 2.98-13.01 2.01-3.14 5.34-4.7 9.98-4.7 4.64 0 7.95 1.56 9.94 4.7 2.01 3.14 3.02 7.47 3.02 13 0 5.58-1 9.94-3.02 13.11-1.99 3.17-5.3 4.75-9.94 4.75s-7.97-1.58-9.98-4.75c-1.99-3.17-2.98-7.53-2.98-13.1Zm19.3 0c0-2.37-.16-4.35-.48-5.95a7.8 7.8 0 0 0-1.83-3.99c-.9-1.02-2.24-1.53-4.03-1.53-1.8 0-3.15.5-4.08 1.53a8.36 8.36 0 0 0-1.82 3.99 33.1 33.1 0 0 0-.44 5.95c0 2.43.15 4.48.44 6.14a7.8 7.8 0 0 0 1.82 3.99c.93.99 2.29 1.48 4.08 1.48 1.8 0 3.15-.5 4.08-1.48a7.8 7.8 0 0 0 1.82-3.99c.3-1.66.44-3.71.44-6.14Zm37.6 3.79h-9.07v9.31h-6.33v-9.31h-9.08v-5.86h9.08v-9.3h6.33v9.3h9.07v5.86Z"/>
      <path fill="#77829D" d="M382.53 656.15v3.67h4.32v1.67h-4.32v3.84h4.86V667h-6.91v-12.53h6.91v1.68h-4.86Zm11.64 5.83 3.2 5.02h-2.32l-2.15-3.37-2.01 3.37h-2.14l3.2-4.88-3.2-5.04h2.32l2.14 3.37 2.02-3.37h2.14l-3.2 4.9Zm6.78-3.44a4.34 4.34 0 0 1 3.46-1.62c.86 0 1.65.22 2.36.65a4.4 4.4 0 0 1 1.69 1.78c.4.77.61 1.65.61 2.65s-.2 1.89-.61 2.68a4.55 4.55 0 0 1-4.05 2.48 4.37 4.37 0 0 1-3.46-1.6v6.16h-2.05v-14.64h2.05v1.46Zm6.03 3.46c0-.69-.14-1.28-.43-1.77-.28-.5-.65-.88-1.12-1.13a2.9 2.9 0 0 0-2.95 0 3 3 0 0 0-1.11 1.15 3.6 3.6 0 0 0-.42 1.78c0 .69.14 1.29.42 1.8a2.96 2.96 0 0 0 4.07 1.15c.46-.27.83-.67 1.11-1.18.29-.52.43-1.12.43-1.8Zm13.2-.2c0 .37-.01.7-.06 1h-7.58a2.73 2.73 0 0 0 2.82 2.63c1.1 0 1.89-.46 2.34-1.38h2.22a4.5 4.5 0 0 1-4.56 3.11 4.7 4.7 0 0 1-4.32-2.43 5.6 5.6 0 0 1-.63-2.7c0-1.02.2-1.91.62-2.68.42-.78 1-1.38 1.74-1.8a5.25 5.25 0 0 1 2.6-.63c.93 0 1.76.2 2.5.61.73.41 1.3.99 1.7 1.73a5 5 0 0 1 .62 2.54Zm-2.13-.65a2.34 2.34 0 0 0-.81-1.82 2.9 2.9 0 0 0-1.97-.68c-.7 0-1.3.23-1.81.68-.5.45-.8 1.05-.9 1.82h5.49Zm6.21-2.63c.3-.5.7-.9 1.19-1.17a3.5 3.5 0 0 1 1.78-.43v2.12h-.52c-.8 0-1.42.2-1.84.62-.4.4-.61 1.11-.61 2.12V667h-2.05v-9.92h2.05v1.44Zm7.25.24v5.49c0 .37.09.64.25.8.18.16.48.24.9.24h1.26V667h-1.62c-.92 0-1.63-.22-2.12-.65-.5-.43-.74-1.13-.74-2.1v-5.5h-1.17v-1.67h1.17v-2.46h2.07v2.46h2.41v1.68h-2.4Zm13.07-4.27c1.33 0 2.5.26 3.49.77 1 .5 1.78 1.24 2.32 2.2.55.95.83 2.06.83 3.33a6.4 6.4 0 0 1-.83 3.31 5.4 5.4 0 0 1-2.32 2.16c-1 .5-2.16.74-3.5.74h-4.08v-12.51h4.09Zm0 10.84c1.46 0 2.58-.4 3.36-1.2.78-.78 1.17-1.9 1.17-3.34 0-1.45-.39-2.59-1.17-3.4-.78-.82-1.9-1.23-3.36-1.23h-2.04v9.17h2.04Zm12.97 1.83c-.93 0-1.78-.2-2.54-.63a4.67 4.67 0 0 1-1.78-1.8 5.48 5.48 0 0 1-.65-2.7c0-1 .23-1.9.67-2.68a4.6 4.6 0 0 1 1.82-1.8 5.28 5.28 0 0 1 2.57-.63c.95 0 1.8.21 2.58.63a4.6 4.6 0 0 1 1.81 1.8c.45.78.67 1.67.67 2.68 0 1.01-.23 1.9-.68 2.68a4.78 4.78 0 0 1-1.88 1.82c-.77.42-1.64.63-2.59.63Zm0-1.78a3 3 0 0 0 2.61-1.51c.3-.5.44-1.12.44-1.84s-.14-1.32-.42-1.82c-.28-.5-.64-.88-1.1-1.13a3 3 0 0 0-1.47-.38 3 3 0 0 0-1.48.38c-.44.25-.8.63-1.06 1.13-.26.5-.4 1.1-.4 1.82 0 1.07.27 1.9.81 2.49a2.8 2.8 0 0 0 2.07.86Zm6.5-3.35c0-1.02.2-1.91.6-2.68a4.5 4.5 0 0 1 1.74-1.8 4.97 4.97 0 0 1 2.52-.63c1.2 0 2.19.29 2.97.86a4.22 4.22 0 0 1 1.6 2.43h-2.22a2.33 2.33 0 0 0-.86-1.15c-.4-.27-.9-.41-1.5-.41-.83 0-1.5.3-2.01.9-.5.59-.74 1.41-.74 2.48s.25 1.9.74 2.5c.5.6 1.18.9 2.02.9 1.18 0 1.97-.52 2.35-1.56h2.22c-.29 1-.83 1.81-1.62 2.41-.8.59-1.78.88-2.95.88a4.62 4.62 0 0 1-4.25-2.43 5.74 5.74 0 0 1-.61-2.7Zm13.87-3.27v5.49c0 .37.08.64.25.8.18.16.48.24.9.24h1.26V667h-1.62c-.92 0-1.63-.22-2.13-.65-.49-.43-.73-1.13-.73-2.1v-5.5h-1.17v-1.67h1.17v-2.46h2.07v2.46h2.4v1.68h-2.4Zm8.6 8.4c-.93 0-1.78-.2-2.54-.63a4.67 4.67 0 0 1-1.78-1.8 5.48 5.48 0 0 1-.65-2.7c0-1 .23-1.9.67-2.68a4.6 4.6 0 0 1 1.82-1.8 5.28 5.28 0 0 1 2.57-.63c.95 0 1.8.21 2.58.63a4.6 4.6 0 0 1 1.81 1.8c.45.78.67 1.67.67 2.68 0 1.01-.23 1.9-.68 2.68a4.78 4.78 0 0 1-1.88 1.82c-.78.42-1.64.63-2.59.63Zm0-1.78a3 3 0 0 0 2.61-1.51c.29-.5.43-1.12.43-1.84s-.13-1.32-.41-1.82c-.28-.5-.64-.88-1.1-1.13a3 3 0 0 0-1.47-.38 3 3 0 0 0-1.48.38c-.44.25-.8.63-1.06 1.13-.27.5-.4 1.1-.4 1.82 0 1.07.27 1.9.81 2.49.55.57 1.24.86 2.07.86Zm9.23-6.86c.3-.5.7-.9 1.19-1.17a3.5 3.5 0 0 1 1.78-.43v2.12h-.52c-.8 0-1.42.2-1.84.62-.4.4-.6 1.11-.6 2.12V667h-2.06v-9.92h2.05v1.44Zm8.46 8.64c-.78 0-1.48-.14-2.1-.41a3.8 3.8 0 0 1-1.47-1.15 2.91 2.91 0 0 1-.57-1.64h2.12c.04.42.24.77.6 1.06.37.28.83.41 1.38.41.58 0 1.02-.1 1.33-.32.33-.23.49-.52.49-.86 0-.38-.18-.65-.54-.83a9.6 9.6 0 0 0-1.68-.6c-.74-.2-1.34-.4-1.81-.59-.47-.2-.88-.49-1.23-.88-.33-.4-.5-.92-.5-1.57 0-.53.15-1 .47-1.44a3 3 0 0 1 1.33-1.04 5.08 5.08 0 0 1 2.02-.38 4.1 4.1 0 0 1 2.71.86c.7.57 1.07 1.34 1.12 2.33h-2.05a1.5 1.5 0 0 0-.54-1.07c-.33-.26-.77-.4-1.32-.4-.54 0-.95.11-1.24.31a.95.95 0 0 0-.43.81c0 .27.1.49.29.67.19.18.42.32.7.43.27.1.68.22 1.22.38.72.2 1.31.39 1.77.6.47.19.87.47 1.2.86.34.38.51.9.52 1.53 0 .56-.15 1.07-.46 1.51-.31.44-.76.8-1.34 1.04a4.7 4.7 0 0 1-2 .38Z"/>
    </g>
  </g>
  <defs>
    <clipPath id="b">
      <rect width="242.5" height="304" x="40" y="25" fill="#fff" rx="8"/>
    </clipPath>
    <clipPath id="c">
      <path fill="#fff" d="M136.25 90h50v50h-50z"/>
    </clipPath>
    <clipPath id="e">
      <rect width="252.5" height="304" x="317.5" y="74" fill="#fff" rx="8"/>
    </clipPath>
    <clipPath id="g">
      <rect width="242.5" height="304" x="40" y="364" fill="#fff" rx="8"/>
    </clipPath>
    <clipPath id="i">
      <rect width="252.5" height="304" x="317.5" y="410" fill="#fff" rx="8"/>
    </clipPath>
    <clipPath id="j">
      <path fill="#fff" d="M418.75 475h50v50h-50z"/>
    </clipPath>
    <filter id="a" width="322.5" height="384" x="0" y="0" color-interpolation-filters="sRGB" filterUnits="userSpaceOnUse">
      <feFlood flood-opacity="0" result="BackgroundImageFix"/>
      <feColorMatrix in="SourceAlpha" result="hardAlpha" values="0 0 0 0 0 0 0 0 0 0 0 0 0 0 0 0 0 0 127 0"/>
      <feMorphology in="SourceAlpha" radius="5" result="effect1_dropShadow_32_1137"/>
      <feOffset dy="15"/>
      <feGaussianBlur stdDeviation="22.5"/>
      <feComposite in2="hardAlpha" operator="out"/>
      <feColorMatrix values="0 0 0 0 0 0 0 0 0 0 0 0 0 0 0 0 0 0 0.07 0"/>
      <feBlend in2="BackgroundImageFix" result="effect1_dropShadow_32_1137"/>
      <feBlend in="SourceGraphic" in2="effect1_dropShadow_32_1137" result="shape"/>
    </filter>
    <filter id="d" width="332.5" height="384" x="277.5" y="49" color-interpolation-filters="sRGB" filterUnits="userSpaceOnUse">
      <feFlood flood-opacity="0" result="BackgroundImageFix"/>
      <feColorMatrix in="SourceAlpha" result="hardAlpha" values="0 0 0 0 0 0 0 0 0 0 0 0 0 0 0 0 0 0 127 0"/>
      <feMorphology in="SourceAlpha" radius="5" result="effect1_dropShadow_32_1137"/>
      <feOffset dy="15"/>
      <feGaussianBlur stdDeviation="22.5"/>
      <feComposite in2="hardAlpha" operator="out"/>
      <feColorMatrix values="0 0 0 0 0 0 0 0 0 0 0 0 0 0 0 0 0 0 0.07 0"/>
      <feBlend in2="BackgroundImageFix" result="effect1_dropShadow_32_1137"/>
      <feBlend in="SourceGraphic" in2="effect1_dropShadow_32_1137" result="shape"/>
    </filter>
    <filter id="f" width="322.5" height="384" x="0" y="339" color-interpolation-filters="sRGB" filterUnits="userSpaceOnUse">
      <feFlood flood-opacity="0" result="BackgroundImageFix"/>
      <feColorMatrix in="SourceAlpha" result="hardAlpha" values="0 0 0 0 0 0 0 0 0 0 0 0 0 0 0 0 0 0 127 0"/>
      <feMorphology in="SourceAlpha" radius="5" result="effect1_dropShadow_32_1137"/>
      <feOffset dy="15"/>
      <feGaussianBlur stdDeviation="22.5"/>
      <feComposite in2="hardAlpha" operator="out"/>
      <feColorMatrix values="0 0 0 0 0 0 0 0 0 0 0 0 0 0 0 0 0 0 0.07 0"/>
      <feBlend in2="BackgroundImageFix" result="effect1_dropShadow_32_1137"/>
      <feBlend in="SourceGraphic" in2="effect1_dropShadow_32_1137" result="shape"/>
    </filter>
    <filter id="h" width="332.5" height="384" x="277.5" y="385" color-interpolation-filters="sRGB" filterUnits="userSpaceOnUse">
      <feFlood flood-opacity="0" result="BackgroundImageFix"/>
      <feColorMatrix in="SourceAlpha" result="hardAlpha" values="0 0 0 0 0 0 0 0 0 0 0 0 0 0 0 0 0 0 127 0"/>
      <feMorphology in="SourceAlpha" radius="5" result="effect1_dropShadow_32_1137"/>
      <feOffset dy="15"/>
      <feGaussianBlur stdDeviation="22.5"/>
      <feComposite in2="hardAlpha" operator="out"/>
      <feColorMatrix values="0 0 0 0 0 0 0 0 0 0 0 0 0 0 0 0 0 0 0.07 0"/>
      <feBlend in2="BackgroundImageFix" result="effect1_dropShadow_32_1137"/>
      <feBlend in="SourceGraphic" in2="effect1_dropShadow_32_1137" result="shape"/>
    </filter>
  </defs>
</svg>
