<svg width="544" height="486" viewBox="0 0 544 486" fill="none" xmlns="http://www.w3.org/2000/svg" xmlns:xlink="http://www.w3.org/1999/xlink">
<rect x="214.5" y="2.5" width="327" height="270" fill="url(#pattern0_32_1018)"/>
<rect x="214.5" y="2.5" width="327" height="270" stroke="white" stroke-width="5"/>
<rect x="110.5" y="213.5" width="327" height="270" fill="url(#pattern1_32_1018)"/>
<rect x="110.5" y="213.5" width="327" height="270" stroke="white" stroke-width="5"/>
<g filter="url(#filter0_d_32_1018)">
<rect x="25" y="94" width="234.45" height="86" rx="8" fill="white"/>
<g clip-path="url(#clip0_32_1018)">
<path d="M75.5 106H49.5C47.2909 106 45.5 107.791 45.5 110V136C45.5 138.209 47.2909 140 49.5 140H75.5C77.7091 140 79.5 138.209 79.5 136V110C79.5 107.791 77.7091 106 75.5 106Z" fill="#2AA7FF"/>
<path d="M64.5154 117.575C64.1187 117.502 63.7543 117.755 63.6788 118.142C63.6033 118.529 63.8573 118.907 64.2432 118.983C65.4051 119.21 66.3022 120.109 66.5296 121.275C66.5943 121.61 66.8898 121.855 67.23 121.855C67.2757 121.855 67.3213 121.851 67.3678 121.843C67.7537 121.765 68.0077 121.388 67.9322 121C67.5927 119.259 66.2524 117.914 64.5154 117.575Z" fill="white"/>
<path d="M64.4635 114.673C64.2776 114.646 64.0909 114.701 63.9423 114.82C63.7896 114.94 63.6942 115.113 63.6735 115.307C63.6295 115.699 63.9125 116.054 64.3042 116.098C67.0056 116.399 69.1053 118.504 69.409 121.214C69.4497 121.577 69.7543 121.851 70.1178 121.851C70.1452 121.851 70.1717 121.849 70.1991 121.846C70.3891 121.825 70.5585 121.731 70.678 121.581C70.7966 121.431 70.8506 121.244 70.829 121.054C70.4506 117.673 67.8338 115.049 64.4635 114.673Z" fill="white"/>
<path fill-rule="evenodd" clip-rule="evenodd" d="M61.693 123.81C65.0172 127.134 65.7713 123.289 67.8879 125.404C69.9284 127.444 71.1012 127.853 68.5159 130.437C68.192 130.698 66.1345 133.829 58.9037 126.6C51.6719 119.37 54.8012 117.31 55.0615 116.987C57.6531 114.395 58.0547 115.574 60.0952 117.614C62.2118 119.73 58.3687 120.487 61.693 123.81Z" fill="white"/>
</g>
<path d="M89.5114 127.5V115.864H97.2159V117.892H91.9716V120.665H96.7045V122.693H91.9716V127.5H89.5114ZM98.6847 127.5V118.773H101.031V120.295H101.122C101.281 119.754 101.548 119.345 101.923 119.068C102.298 118.788 102.73 118.648 103.219 118.648C103.34 118.648 103.471 118.655 103.611 118.67C103.751 118.686 103.874 118.706 103.98 118.733V120.881C103.866 120.847 103.709 120.816 103.509 120.79C103.308 120.763 103.124 120.75 102.957 120.75C102.601 120.75 102.283 120.828 102.003 120.983C101.726 121.134 101.507 121.347 101.344 121.619C101.185 121.892 101.105 122.206 101.105 122.562V127.5H98.6847ZM108.803 127.67C107.905 127.67 107.132 127.489 106.484 127.125C105.84 126.758 105.344 126.239 104.996 125.568C104.647 124.894 104.473 124.097 104.473 123.176C104.473 122.278 104.647 121.491 104.996 120.812C105.344 120.134 105.835 119.606 106.467 119.227C107.104 118.848 107.85 118.659 108.706 118.659C109.282 118.659 109.818 118.752 110.314 118.938C110.814 119.119 111.25 119.394 111.621 119.761C111.996 120.129 112.287 120.591 112.496 121.148C112.704 121.701 112.808 122.348 112.808 123.091V123.756H105.439V122.256H110.53C110.53 121.907 110.454 121.598 110.303 121.33C110.151 121.061 109.941 120.85 109.672 120.699C109.407 120.544 109.098 120.466 108.746 120.466C108.378 120.466 108.053 120.551 107.768 120.722C107.488 120.888 107.268 121.114 107.109 121.398C106.95 121.678 106.869 121.991 106.865 122.335V123.761C106.865 124.193 106.945 124.566 107.104 124.881C107.267 125.195 107.496 125.438 107.791 125.608C108.087 125.778 108.437 125.864 108.842 125.864C109.111 125.864 109.357 125.826 109.581 125.75C109.804 125.674 109.996 125.561 110.155 125.409C110.314 125.258 110.435 125.072 110.518 124.852L112.757 125C112.643 125.538 112.411 126.008 112.058 126.409C111.71 126.807 111.259 127.117 110.706 127.341C110.157 127.561 109.522 127.67 108.803 127.67ZM118.365 127.67C117.467 127.67 116.695 127.489 116.047 127.125C115.403 126.758 114.907 126.239 114.558 125.568C114.21 124.894 114.036 124.097 114.036 123.176C114.036 122.278 114.21 121.491 114.558 120.812C114.907 120.134 115.397 119.606 116.03 119.227C116.666 118.848 117.412 118.659 118.268 118.659C118.844 118.659 119.38 118.752 119.876 118.938C120.376 119.119 120.812 119.394 121.183 119.761C121.558 120.129 121.85 120.591 122.058 121.148C122.267 121.701 122.371 122.348 122.371 123.091V123.756H115.001V122.256H120.092C120.092 121.907 120.017 121.598 119.865 121.33C119.714 121.061 119.503 120.85 119.234 120.699C118.969 120.544 118.661 120.466 118.308 120.466C117.941 120.466 117.615 120.551 117.331 120.722C117.051 120.888 116.831 121.114 116.672 121.398C116.513 121.678 116.431 121.991 116.428 122.335V123.761C116.428 124.193 116.507 124.566 116.666 124.881C116.829 125.195 117.058 125.438 117.354 125.608C117.649 125.778 118 125.864 118.405 125.864C118.674 125.864 118.92 125.826 119.143 125.75C119.367 125.674 119.558 125.561 119.717 125.409C119.876 125.258 119.998 125.072 120.081 124.852L122.32 125C122.206 125.538 121.973 126.008 121.621 126.409C121.272 126.807 120.821 127.117 120.268 127.341C119.719 127.561 119.085 127.67 118.365 127.67ZM137.966 119.938H135.477C135.432 119.616 135.339 119.33 135.199 119.08C135.059 118.826 134.879 118.61 134.659 118.432C134.439 118.254 134.186 118.117 133.898 118.023C133.614 117.928 133.305 117.881 132.972 117.881C132.369 117.881 131.845 118.03 131.398 118.33C130.951 118.625 130.604 119.057 130.358 119.625C130.112 120.189 129.989 120.875 129.989 121.682C129.989 122.511 130.112 123.208 130.358 123.773C130.608 124.337 130.956 124.763 131.403 125.051C131.85 125.339 132.367 125.483 132.955 125.483C133.284 125.483 133.589 125.439 133.869 125.352C134.153 125.265 134.405 125.138 134.625 124.972C134.845 124.801 135.027 124.595 135.17 124.352C135.318 124.11 135.42 123.833 135.477 123.523L137.966 123.534C137.902 124.068 137.741 124.583 137.483 125.08C137.229 125.572 136.886 126.013 136.455 126.403C136.027 126.79 135.515 127.097 134.92 127.324C134.33 127.547 133.661 127.659 132.915 127.659C131.877 127.659 130.949 127.424 130.131 126.955C129.316 126.485 128.672 125.805 128.199 124.915C127.729 124.025 127.494 122.947 127.494 121.682C127.494 120.413 127.733 119.333 128.21 118.443C128.688 117.553 129.335 116.875 130.153 116.409C130.972 115.939 131.892 115.705 132.915 115.705C133.589 115.705 134.214 115.799 134.79 115.989C135.369 116.178 135.883 116.455 136.33 116.818C136.777 117.178 137.14 117.619 137.42 118.142C137.705 118.665 137.886 119.263 137.966 119.938ZM143.628 127.67C142.745 127.67 141.982 127.483 141.338 127.108C140.698 126.729 140.204 126.203 139.855 125.528C139.507 124.85 139.332 124.064 139.332 123.17C139.332 122.269 139.507 121.481 139.855 120.807C140.204 120.129 140.698 119.602 141.338 119.227C141.982 118.848 142.745 118.659 143.628 118.659C144.51 118.659 145.272 118.848 145.912 119.227C146.556 119.602 147.052 120.129 147.401 120.807C147.749 121.481 147.923 122.269 147.923 123.17C147.923 124.064 147.749 124.85 147.401 125.528C147.052 126.203 146.556 126.729 145.912 127.108C145.272 127.483 144.51 127.67 143.628 127.67ZM143.639 125.795C144.041 125.795 144.376 125.682 144.645 125.455C144.914 125.223 145.116 124.909 145.253 124.511C145.393 124.114 145.463 123.661 145.463 123.153C145.463 122.646 145.393 122.193 145.253 121.795C145.116 121.398 144.914 121.083 144.645 120.852C144.376 120.621 144.041 120.506 143.639 120.506C143.234 120.506 142.893 120.621 142.616 120.852C142.344 121.083 142.137 121.398 141.997 121.795C141.861 122.193 141.793 122.646 141.793 123.153C141.793 123.661 141.861 124.114 141.997 124.511C142.137 124.909 142.344 125.223 142.616 125.455C142.893 125.682 143.234 125.795 143.639 125.795ZM151.918 122.455V127.5H149.497V118.773H151.804V120.312H151.906C152.099 119.805 152.423 119.403 152.878 119.108C153.332 118.809 153.884 118.659 154.531 118.659C155.137 118.659 155.666 118.792 156.116 119.057C156.567 119.322 156.918 119.701 157.168 120.193C157.418 120.682 157.543 121.265 157.543 121.943V127.5H155.122V122.375C155.126 121.841 154.99 121.424 154.713 121.125C154.437 120.822 154.056 120.67 153.571 120.67C153.245 120.67 152.957 120.741 152.707 120.881C152.461 121.021 152.268 121.225 152.128 121.494C151.991 121.759 151.921 122.08 151.918 122.455ZM166.712 121.261L164.496 121.398C164.458 121.208 164.376 121.038 164.251 120.886C164.126 120.731 163.962 120.608 163.757 120.517C163.556 120.422 163.316 120.375 163.036 120.375C162.661 120.375 162.344 120.455 162.087 120.614C161.829 120.769 161.7 120.977 161.7 121.239C161.7 121.447 161.784 121.623 161.95 121.767C162.117 121.911 162.403 122.027 162.808 122.114L164.388 122.432C165.236 122.606 165.869 122.886 166.286 123.273C166.702 123.659 166.911 124.167 166.911 124.795C166.911 125.367 166.742 125.869 166.405 126.301C166.071 126.733 165.613 127.07 165.03 127.312C164.45 127.551 163.782 127.67 163.024 127.67C161.869 127.67 160.948 127.43 160.263 126.949C159.581 126.464 159.181 125.805 159.064 124.972L161.445 124.847C161.517 125.199 161.691 125.468 161.967 125.653C162.244 125.835 162.598 125.926 163.03 125.926C163.454 125.926 163.795 125.845 164.053 125.682C164.314 125.515 164.446 125.301 164.45 125.04C164.446 124.82 164.354 124.64 164.172 124.5C163.99 124.356 163.71 124.246 163.331 124.17L161.82 123.869C160.967 123.699 160.333 123.403 159.916 122.983C159.503 122.562 159.297 122.027 159.297 121.375C159.297 120.814 159.448 120.331 159.751 119.926C160.058 119.521 160.488 119.208 161.041 118.989C161.598 118.769 162.25 118.659 162.996 118.659C164.098 118.659 164.965 118.892 165.598 119.358C166.234 119.824 166.606 120.458 166.712 121.261ZM174.031 123.784V118.773H176.452V127.5H174.128V125.915H174.037C173.84 126.426 173.512 126.837 173.054 127.148C172.599 127.458 172.045 127.614 171.389 127.614C170.806 127.614 170.293 127.481 169.849 127.216C169.406 126.951 169.06 126.574 168.81 126.085C168.563 125.597 168.438 125.011 168.435 124.33V118.773H170.855V123.898C170.859 124.413 170.997 124.82 171.27 125.119C171.543 125.419 171.908 125.568 172.366 125.568C172.658 125.568 172.931 125.502 173.185 125.369C173.438 125.233 173.643 125.032 173.798 124.767C173.957 124.502 174.035 124.174 174.031 123.784ZM180.808 115.864V127.5H178.388V115.864H180.808ZM187.389 118.773V120.591H182.134V118.773H187.389ZM183.327 116.682H185.747V124.818C185.747 125.042 185.781 125.216 185.849 125.341C185.918 125.462 186.012 125.547 186.134 125.597C186.259 125.646 186.402 125.67 186.565 125.67C186.679 125.67 186.793 125.661 186.906 125.642C187.02 125.619 187.107 125.602 187.168 125.591L187.548 127.392C187.427 127.43 187.257 127.473 187.037 127.523C186.817 127.576 186.55 127.608 186.236 127.619C185.652 127.642 185.141 127.564 184.702 127.386C184.266 127.208 183.927 126.932 183.685 126.557C183.442 126.182 183.323 125.708 183.327 125.136V116.682ZM191.455 127.665C190.898 127.665 190.402 127.568 189.966 127.375C189.53 127.178 189.186 126.888 188.932 126.506C188.682 126.119 188.557 125.638 188.557 125.062C188.557 124.578 188.646 124.17 188.824 123.841C189.002 123.511 189.244 123.246 189.551 123.045C189.858 122.845 190.206 122.693 190.597 122.591C190.991 122.489 191.403 122.417 191.835 122.375C192.343 122.322 192.752 122.273 193.062 122.227C193.373 122.178 193.598 122.106 193.739 122.011C193.879 121.917 193.949 121.777 193.949 121.591V121.557C193.949 121.197 193.835 120.919 193.608 120.722C193.384 120.525 193.066 120.426 192.653 120.426C192.218 120.426 191.871 120.523 191.614 120.716C191.356 120.905 191.186 121.144 191.102 121.432L188.864 121.25C188.977 120.72 189.201 120.261 189.534 119.875C189.867 119.485 190.297 119.186 190.824 118.977C191.354 118.765 191.968 118.659 192.665 118.659C193.15 118.659 193.614 118.716 194.057 118.83C194.504 118.943 194.9 119.119 195.244 119.358C195.593 119.597 195.867 119.903 196.068 120.278C196.269 120.65 196.369 121.095 196.369 121.614V127.5H194.074V126.29H194.006C193.866 126.562 193.678 126.803 193.443 127.011C193.208 127.216 192.926 127.377 192.597 127.494C192.267 127.608 191.886 127.665 191.455 127.665ZM192.148 125.994C192.504 125.994 192.818 125.924 193.091 125.784C193.364 125.64 193.578 125.447 193.733 125.205C193.888 124.962 193.966 124.687 193.966 124.381V123.455C193.89 123.504 193.786 123.549 193.653 123.591C193.525 123.629 193.379 123.665 193.216 123.699C193.053 123.729 192.89 123.758 192.727 123.784C192.564 123.807 192.417 123.828 192.284 123.847C192 123.888 191.752 123.955 191.54 124.045C191.328 124.136 191.163 124.259 191.045 124.415C190.928 124.566 190.869 124.756 190.869 124.983C190.869 125.312 190.989 125.564 191.227 125.739C191.47 125.909 191.777 125.994 192.148 125.994ZM202.889 118.773V120.591H197.634V118.773H202.889ZM198.827 116.682H201.247V124.818C201.247 125.042 201.281 125.216 201.349 125.341C201.418 125.462 201.512 125.547 201.634 125.597C201.759 125.646 201.902 125.67 202.065 125.67C202.179 125.67 202.293 125.661 202.406 125.642C202.52 125.619 202.607 125.602 202.668 125.591L203.048 127.392C202.927 127.43 202.757 127.473 202.537 127.523C202.317 127.576 202.05 127.608 201.736 127.619C201.152 127.642 200.641 127.564 200.202 127.386C199.766 127.208 199.427 126.932 199.185 126.557C198.942 126.182 198.823 125.708 198.827 125.136V116.682ZM204.466 127.5V118.773H206.886V127.5H204.466ZM205.682 117.648C205.322 117.648 205.013 117.528 204.756 117.29C204.502 117.047 204.375 116.758 204.375 116.42C204.375 116.087 204.502 115.801 204.756 115.562C205.013 115.32 205.322 115.199 205.682 115.199C206.042 115.199 206.348 115.32 206.602 115.562C206.86 115.801 206.989 116.087 206.989 116.42C206.989 116.758 206.86 117.047 206.602 117.29C206.348 117.528 206.042 117.648 205.682 117.648ZM212.768 127.67C211.886 127.67 211.123 127.483 210.479 127.108C209.839 126.729 209.344 126.203 208.996 125.528C208.647 124.85 208.473 124.064 208.473 123.17C208.473 122.269 208.647 121.481 208.996 120.807C209.344 120.129 209.839 119.602 210.479 119.227C211.123 118.848 211.886 118.659 212.768 118.659C213.651 118.659 214.412 118.848 215.053 119.227C215.696 119.602 216.193 120.129 216.541 120.807C216.89 121.481 217.064 122.269 217.064 123.17C217.064 124.064 216.89 124.85 216.541 125.528C216.193 126.203 215.696 126.729 215.053 127.108C214.412 127.483 213.651 127.67 212.768 127.67ZM212.78 125.795C213.181 125.795 213.517 125.682 213.786 125.455C214.054 125.223 214.257 124.909 214.393 124.511C214.534 124.114 214.604 123.661 214.604 123.153C214.604 122.646 214.534 122.193 214.393 121.795C214.257 121.398 214.054 121.083 213.786 120.852C213.517 120.621 213.181 120.506 212.78 120.506C212.375 120.506 212.034 120.621 211.757 120.852C211.484 121.083 211.278 121.398 211.138 121.795C211.001 122.193 210.933 122.646 210.933 123.153C210.933 123.661 211.001 124.114 211.138 124.511C211.278 124.909 211.484 125.223 211.757 125.455C212.034 125.682 212.375 125.795 212.78 125.795ZM221.058 122.455V127.5H218.638V118.773H220.945V120.312H221.047C221.24 119.805 221.564 119.403 222.018 119.108C222.473 118.809 223.024 118.659 223.672 118.659C224.278 118.659 224.806 118.792 225.257 119.057C225.708 119.322 226.058 119.701 226.308 120.193C226.558 120.682 226.683 121.265 226.683 121.943V127.5H224.263V122.375C224.267 121.841 224.13 121.424 223.854 121.125C223.577 120.822 223.196 120.67 222.712 120.67C222.386 120.67 222.098 120.741 221.848 120.881C221.602 121.021 221.409 121.225 221.268 121.494C221.132 121.759 221.062 122.08 221.058 122.455Z" fill="#1B3C74"/>
<path d="M61.2592 152.138H59.5973C59.5334 151.783 59.4144 151.471 59.2404 151.201C59.0664 150.931 58.8533 150.702 58.6012 150.514C58.3491 150.326 58.0668 150.184 57.7543 150.088C57.4453 149.992 57.1168 149.944 56.7688 149.944C56.1403 149.944 55.5774 150.102 55.0803 150.418C54.5866 150.734 54.196 151.197 53.9084 151.808C53.6243 152.419 53.4822 153.165 53.4822 154.045C53.4822 154.933 53.6243 155.683 53.9084 156.293C54.196 156.904 54.5884 157.366 55.0856 157.678C55.5827 157.991 56.142 158.147 56.7635 158.147C57.108 158.147 57.4347 158.101 57.7436 158.009C58.0561 157.913 58.3384 157.772 58.5906 157.588C58.8427 157.403 59.0558 157.178 59.2298 156.911C59.4073 156.641 59.5298 156.332 59.5973 155.984L61.2592 155.99C61.1705 156.526 60.9982 157.02 60.7425 157.471C60.4904 157.918 60.1655 158.305 59.7678 158.632C59.3736 158.955 58.9226 159.205 58.4148 159.383C57.907 159.56 57.353 159.649 56.7528 159.649C55.8082 159.649 54.9666 159.425 54.228 158.978C53.4893 158.527 52.907 157.882 52.4808 157.044C52.0582 156.206 51.8469 155.207 51.8469 154.045C51.8469 152.881 52.06 151.881 52.4862 151.047C52.9123 150.208 53.4947 149.566 54.2333 149.118C54.9719 148.667 55.8118 148.442 56.7528 148.442C57.3317 148.442 57.8714 148.525 58.3722 148.692C58.8764 148.855 59.3292 149.097 59.7305 149.417C60.1317 149.733 60.4638 150.12 60.7266 150.578C60.9893 151.032 61.1669 151.553 61.2592 152.138ZM66.5473 159.665C65.7803 159.665 65.1109 159.489 64.5392 159.138C63.9674 158.786 63.5235 158.294 63.2075 157.662C62.8914 157.03 62.7334 156.292 62.7334 155.446C62.7334 154.598 62.8914 153.855 63.2075 153.22C63.5235 152.584 63.9674 152.091 64.5392 151.739C65.1109 151.387 65.7803 151.212 66.5473 151.212C67.3144 151.212 67.9838 151.387 68.5555 151.739C69.1272 152.091 69.5711 152.584 69.8872 153.22C70.2032 153.855 70.3612 154.598 70.3612 155.446C70.3612 156.292 70.2032 157.03 69.8872 157.662C69.5711 158.294 69.1272 158.786 68.5555 159.138C67.9838 159.489 67.3144 159.665 66.5473 159.665ZM66.5526 158.328C67.0498 158.328 67.4617 158.197 67.7884 157.934C68.1151 157.671 68.3566 157.321 68.5129 156.885C68.6727 156.448 68.7526 155.967 68.7526 155.441C68.7526 154.919 68.6727 154.44 68.5129 154.003C68.3566 153.562 68.1151 153.209 67.7884 152.943C67.4617 152.676 67.0498 152.543 66.5526 152.543C66.0519 152.543 65.6365 152.676 65.3062 152.943C64.9795 153.209 64.7362 153.562 64.5764 154.003C64.4202 154.44 64.3421 154.919 64.3421 155.441C64.3421 155.967 64.4202 156.448 64.5764 156.885C64.7362 157.321 64.9795 157.671 65.3062 157.934C65.6365 158.197 66.0519 158.328 66.5526 158.328ZM73.7317 154.642V159.5H72.139V151.318H73.6678V152.65H73.769C73.9572 152.217 74.252 151.869 74.6532 151.606C75.0581 151.343 75.5676 151.212 76.182 151.212C76.7395 151.212 77.2278 151.329 77.6468 151.563C78.0659 151.794 78.3908 152.138 78.6216 152.597C78.8525 153.055 78.9679 153.621 78.9679 154.296V159.5H77.3752V154.488C77.3752 153.895 77.2207 153.431 76.9118 153.097C76.6028 152.76 76.1784 152.591 75.6387 152.591C75.2694 152.591 74.9409 152.671 74.6532 152.831C74.3691 152.991 74.1436 153.225 73.9767 153.534C73.8134 153.839 73.7317 154.209 73.7317 154.642ZM87.2349 153.316L85.7914 153.571C85.731 153.387 85.6351 153.211 85.5037 153.044C85.3759 152.877 85.2019 152.74 84.9817 152.634C84.7615 152.527 84.4863 152.474 84.1561 152.474C83.7051 152.474 83.3287 152.575 83.0268 152.778C82.725 152.977 82.574 153.234 82.574 153.55C82.574 153.824 82.6752 154.044 82.8777 154.211C83.0801 154.377 83.4068 154.514 83.8578 154.621L85.1575 154.919C85.9103 155.093 86.4714 155.361 86.8407 155.723C87.21 156.086 87.3947 156.556 87.3947 157.135C87.3947 157.625 87.2527 158.062 86.9686 158.445C86.688 158.825 86.2956 159.124 85.7914 159.34C85.2907 159.557 84.71 159.665 84.0495 159.665C83.1333 159.665 82.3858 159.47 81.807 159.079C81.2282 158.685 80.873 158.126 80.7417 157.401L82.2811 157.167C82.377 157.568 82.574 157.872 82.8723 158.078C83.1706 158.28 83.5595 158.381 84.0389 158.381C84.5609 158.381 84.9782 158.273 85.2907 158.056C85.6032 157.836 85.7594 157.568 85.7594 157.252C85.7594 156.996 85.6635 156.782 85.4718 156.608C85.2836 156.434 84.9941 156.302 84.6035 156.213L83.2186 155.91C82.4551 155.736 81.8904 155.459 81.5247 155.079C81.1625 154.699 80.9814 154.218 80.9814 153.635C80.9814 153.152 81.1163 152.73 81.3862 152.368C81.6561 152.005 82.0289 151.723 82.5048 151.521C82.9806 151.315 83.5257 151.212 84.1401 151.212C85.0243 151.212 85.7203 151.403 86.2282 151.787C86.736 152.167 87.0716 152.676 87.2349 153.316ZM94.3287 156.107V151.318H95.9268V159.5H94.3607V158.083H94.2755C94.0873 158.52 93.7854 158.884 93.3699 159.175C92.958 159.463 92.4449 159.607 91.8305 159.607C91.305 159.607 90.8398 159.491 90.4349 159.26C90.0336 159.026 89.7176 158.68 89.4868 158.222C89.2595 157.763 89.1459 157.197 89.1459 156.522V151.318H90.7385V156.331C90.7385 156.888 90.893 157.332 91.202 157.662C91.5109 157.993 91.9122 158.158 92.4058 158.158C92.7041 158.158 93.0006 158.083 93.2954 157.934C93.5937 157.785 93.8405 157.559 94.0358 157.257C94.2346 156.956 94.3323 156.572 94.3287 156.107ZM99.6594 148.591V159.5H98.0668V148.591H99.6594ZM105.621 151.318V152.597H101.152V151.318H105.621ZM102.351 149.358H103.943V157.098C103.943 157.407 103.99 157.639 104.082 157.795C104.174 157.948 104.293 158.053 104.439 158.11C104.588 158.163 104.75 158.19 104.924 158.19C105.051 158.19 105.163 158.181 105.259 158.163C105.355 158.145 105.43 158.131 105.483 158.12L105.771 159.436C105.678 159.472 105.547 159.507 105.376 159.543C105.206 159.582 104.993 159.603 104.737 159.607C104.318 159.614 103.927 159.539 103.565 159.383C103.203 159.227 102.91 158.985 102.686 158.658C102.463 158.332 102.351 157.922 102.351 157.428V149.358ZM109.764 159.681C109.246 159.681 108.777 159.585 108.358 159.393C107.939 159.198 107.607 158.916 107.362 158.547C107.12 158.177 107 157.724 107 157.188C107 156.727 107.088 156.347 107.266 156.048C107.444 155.75 107.683 155.514 107.985 155.34C108.287 155.166 108.624 155.034 108.997 154.946C109.37 154.857 109.75 154.789 110.137 154.743C110.627 154.686 111.025 154.64 111.33 154.605C111.636 154.566 111.858 154.504 111.996 154.418C112.135 154.333 112.204 154.195 112.204 154.003V153.966C112.204 153.5 112.072 153.14 111.81 152.884C111.55 152.629 111.163 152.501 110.648 152.501C110.112 152.501 109.69 152.62 109.381 152.858C109.075 153.092 108.864 153.353 108.747 153.641L107.25 153.3C107.428 152.803 107.687 152.401 108.028 152.096C108.372 151.787 108.768 151.563 109.216 151.425C109.663 151.283 110.134 151.212 110.627 151.212C110.954 151.212 111.3 151.251 111.666 151.329C112.035 151.403 112.38 151.542 112.699 151.744C113.022 151.947 113.287 152.236 113.493 152.613C113.699 152.985 113.802 153.47 113.802 154.067V159.5H112.246V158.381H112.183C112.08 158.587 111.925 158.79 111.719 158.989C111.513 159.187 111.249 159.353 110.925 159.484C110.602 159.615 110.215 159.681 109.764 159.681ZM110.11 158.403C110.551 158.403 110.927 158.316 111.24 158.142C111.556 157.968 111.795 157.74 111.959 157.46C112.126 157.176 112.209 156.872 112.209 156.549V155.494C112.152 155.551 112.042 155.604 111.879 155.654C111.719 155.7 111.536 155.741 111.33 155.777C111.124 155.809 110.924 155.839 110.728 155.867C110.533 155.892 110.37 155.913 110.238 155.931C109.929 155.97 109.647 156.036 109.391 156.128C109.139 156.221 108.937 156.354 108.784 156.528C108.635 156.698 108.56 156.925 108.56 157.21C108.56 157.604 108.706 157.902 108.997 158.104C109.288 158.303 109.659 158.403 110.11 158.403ZM119.742 151.318V152.597H115.273V151.318H119.742ZM116.472 149.358H118.065V157.098C118.065 157.407 118.111 157.639 118.203 157.795C118.295 157.948 118.414 158.053 118.56 158.11C118.709 158.163 118.871 158.19 119.045 158.19C119.172 158.19 119.284 158.181 119.38 158.163C119.476 158.145 119.551 158.131 119.604 158.12L119.892 159.436C119.799 159.472 119.668 159.507 119.497 159.543C119.327 159.582 119.114 159.603 118.858 159.607C118.439 159.614 118.049 159.539 117.686 159.383C117.324 159.227 117.031 158.985 116.807 158.658C116.584 158.332 116.472 157.922 116.472 157.428V149.358ZM121.504 159.5V151.318H123.097V159.5H121.504ZM122.309 150.056C122.032 150.056 121.794 149.963 121.595 149.779C121.4 149.591 121.302 149.367 121.302 149.108C121.302 148.845 121.4 148.621 121.595 148.436C121.794 148.248 122.032 148.154 122.309 148.154C122.586 148.154 122.822 148.248 123.017 148.436C123.216 148.621 123.315 148.845 123.315 149.108C123.315 149.367 123.216 149.591 123.017 149.779C122.822 149.963 122.586 150.056 122.309 150.056ZM128.686 159.665C127.919 159.665 127.25 159.489 126.678 159.138C126.106 158.786 125.662 158.294 125.346 157.662C125.03 157.03 124.872 156.292 124.872 155.446C124.872 154.598 125.03 153.855 125.346 153.22C125.662 152.584 126.106 152.091 126.678 151.739C127.25 151.387 127.919 151.212 128.686 151.212C129.453 151.212 130.122 151.387 130.694 151.739C131.266 152.091 131.71 152.584 132.026 153.22C132.342 153.855 132.5 154.598 132.5 155.446C132.5 156.292 132.342 157.03 132.026 157.662C131.71 158.294 131.266 158.786 130.694 159.138C130.122 159.489 129.453 159.665 128.686 159.665ZM128.691 158.328C129.188 158.328 129.6 158.197 129.927 157.934C130.254 157.671 130.495 157.321 130.652 156.885C130.811 156.448 130.891 155.967 130.891 155.441C130.891 154.919 130.811 154.44 130.652 154.003C130.495 153.562 130.254 153.209 129.927 152.943C129.6 152.676 129.188 152.543 128.691 152.543C128.191 152.543 127.775 152.676 127.445 152.943C127.118 153.209 126.875 153.562 126.715 154.003C126.559 154.44 126.481 154.919 126.481 155.441C126.481 155.967 126.559 156.448 126.715 156.885C126.875 157.321 127.118 157.671 127.445 157.934C127.775 158.197 128.191 158.328 128.691 158.328ZM135.87 154.642V159.5H134.278V151.318H135.806V152.65H135.908C136.096 152.217 136.391 151.869 136.792 151.606C137.197 151.343 137.706 151.212 138.321 151.212C138.878 151.212 139.366 151.329 139.786 151.563C140.205 151.794 140.529 152.138 140.76 152.597C140.991 153.055 141.107 153.621 141.107 154.296V159.5H139.514V154.488C139.514 153.895 139.359 153.431 139.05 153.097C138.741 152.76 138.317 152.591 137.777 152.591C137.408 152.591 137.08 152.671 136.792 152.831C136.508 152.991 136.282 153.225 136.115 153.534C135.952 153.839 135.87 154.209 135.87 154.642ZM148.986 159.5L146.578 151.318H148.224L149.828 157.327H149.908L151.516 151.318H153.162L154.76 157.3H154.84L156.433 151.318H158.079L155.676 159.5H154.052L152.39 153.593H152.267L150.605 159.5H148.986ZM159.59 159.5V151.318H161.183V159.5H159.59ZM160.395 150.056C160.118 150.056 159.88 149.963 159.681 149.779C159.485 149.591 159.388 149.367 159.388 149.108C159.388 148.845 159.485 148.621 159.681 148.436C159.88 148.248 160.118 148.154 160.395 148.154C160.672 148.154 160.908 148.248 161.103 148.436C161.302 148.621 161.401 148.845 161.401 149.108C161.401 149.367 161.302 149.591 161.103 149.779C160.908 149.963 160.672 150.056 160.395 150.056ZM167.145 151.318V152.597H162.676V151.318H167.145ZM163.874 149.358H165.467V157.098C165.467 157.407 165.513 157.639 165.605 157.795C165.698 157.948 165.817 158.053 165.962 158.11C166.111 158.163 166.273 158.19 166.447 158.19C166.575 158.19 166.687 158.181 166.783 158.163C166.878 158.145 166.953 158.131 167.006 158.12L167.294 159.436C167.202 159.472 167.07 159.507 166.9 159.543C166.729 159.582 166.516 159.603 166.261 159.607C165.842 159.614 165.451 159.539 165.089 159.383C164.726 159.227 164.434 158.985 164.21 158.658C163.986 158.332 163.874 157.922 163.874 157.428V149.358ZM170.675 154.642V159.5H169.082V148.591H170.654V152.65H170.755C170.947 152.21 171.24 151.86 171.634 151.6C172.028 151.341 172.543 151.212 173.179 151.212C173.74 151.212 174.23 151.327 174.649 151.558C175.071 151.789 175.398 152.133 175.629 152.591C175.863 153.046 175.98 153.614 175.98 154.296V159.5H174.388V154.488C174.388 153.887 174.233 153.422 173.924 153.092C173.615 152.758 173.186 152.591 172.635 152.591C172.259 152.591 171.922 152.671 171.623 152.831C171.328 152.991 171.096 153.225 170.925 153.534C170.759 153.839 170.675 154.209 170.675 154.642ZM185.895 151.318V152.597H181.426V151.318H185.895ZM182.624 149.358H184.217V157.098C184.217 157.407 184.263 157.639 184.355 157.795C184.448 157.948 184.567 158.053 184.712 158.11C184.861 158.163 185.023 158.19 185.197 158.19C185.325 158.19 185.437 158.181 185.533 158.163C185.628 158.145 185.703 158.131 185.756 158.12L186.044 159.436C185.952 159.472 185.82 159.507 185.65 159.543C185.479 159.582 185.266 159.603 185.011 159.607C184.592 159.614 184.201 159.539 183.839 159.383C183.476 159.227 183.184 158.985 182.96 158.658C182.736 158.332 182.624 157.922 182.624 157.428V149.358ZM189.425 154.642V159.5H187.832V148.591H189.404V152.65H189.505C189.697 152.21 189.99 151.86 190.384 151.6C190.778 151.341 191.293 151.212 191.929 151.212C192.49 151.212 192.98 151.327 193.399 151.558C193.821 151.789 194.148 152.133 194.379 152.591C194.613 153.046 194.73 153.614 194.73 154.296V159.5H193.138V154.488C193.138 153.887 192.983 153.422 192.674 153.092C192.365 152.758 191.936 152.591 191.385 152.591C191.009 152.591 190.672 152.671 190.373 152.831C190.078 152.991 189.846 153.225 189.675 153.534C189.509 153.839 189.425 154.209 189.425 154.642ZM200.382 159.665C199.576 159.665 198.882 159.493 198.299 159.148C197.721 158.8 197.273 158.312 196.957 157.684C196.645 157.051 196.488 156.311 196.488 155.462C196.488 154.624 196.645 153.886 196.957 153.246C197.273 152.607 197.713 152.108 198.278 151.75C198.846 151.391 199.51 151.212 200.27 151.212C200.732 151.212 201.179 151.288 201.613 151.441C202.046 151.593 202.435 151.833 202.779 152.16C203.124 152.487 203.395 152.911 203.594 153.433C203.793 153.951 203.892 154.582 203.892 155.324V155.888H197.388V154.695H202.332C202.332 154.276 202.246 153.905 202.076 153.582C201.906 153.255 201.666 152.998 201.357 152.81C201.051 152.621 200.693 152.527 200.281 152.527C199.833 152.527 199.443 152.637 199.109 152.858C198.779 153.074 198.523 153.358 198.342 153.71C198.164 154.058 198.076 154.436 198.076 154.844V155.777C198.076 156.324 198.172 156.789 198.363 157.172C198.559 157.556 198.83 157.849 199.178 158.051C199.526 158.25 199.933 158.349 200.398 158.349C200.7 158.349 200.975 158.307 201.224 158.222C201.472 158.133 201.687 158.001 201.868 157.827C202.049 157.653 202.188 157.439 202.284 157.183L203.791 157.455C203.67 157.898 203.454 158.287 203.141 158.621C202.832 158.951 202.444 159.209 201.975 159.393C201.51 159.575 200.979 159.665 200.382 159.665ZM209.757 159.5V148.591H211.35V152.645H211.446C211.538 152.474 211.671 152.277 211.845 152.053C212.019 151.83 212.261 151.634 212.57 151.467C212.879 151.297 213.287 151.212 213.795 151.212C214.455 151.212 215.045 151.379 215.563 151.712C216.082 152.046 216.488 152.527 216.783 153.156C217.081 153.784 217.23 154.541 217.23 155.425C217.23 156.309 217.083 157.067 216.788 157.7C216.494 158.328 216.089 158.813 215.574 159.154C215.059 159.491 214.471 159.66 213.811 159.66C213.314 159.66 212.907 159.576 212.591 159.409C212.278 159.243 212.033 159.047 211.856 158.824C211.678 158.6 211.542 158.401 211.446 158.227H211.312V159.5H209.757ZM211.318 155.409C211.318 155.984 211.401 156.489 211.568 156.922C211.735 157.355 211.977 157.694 212.293 157.939C212.609 158.181 212.996 158.301 213.454 158.301C213.93 158.301 214.327 158.175 214.647 157.923C214.967 157.668 215.208 157.321 215.371 156.885C215.538 156.448 215.622 155.956 215.622 155.409C215.622 154.869 215.54 154.385 215.377 153.955C215.217 153.525 214.975 153.186 214.652 152.938C214.333 152.689 213.933 152.565 213.454 152.565C212.992 152.565 212.602 152.684 212.282 152.922C211.966 153.159 211.726 153.491 211.563 153.918C211.4 154.344 211.318 154.841 211.318 155.409ZM222.545 159.665C221.739 159.665 221.045 159.493 220.462 159.148C219.884 158.8 219.436 158.312 219.12 157.684C218.808 157.051 218.651 156.311 218.651 155.462C218.651 154.624 218.808 153.886 219.12 153.246C219.436 152.607 219.877 152.108 220.441 151.75C221.009 151.391 221.673 151.212 222.433 151.212C222.895 151.212 223.342 151.288 223.776 151.441C224.209 151.593 224.598 151.833 224.942 152.16C225.287 152.487 225.558 152.911 225.757 153.433C225.956 153.951 226.055 154.582 226.055 155.324V155.888H219.552V154.695H224.495C224.495 154.276 224.41 153.905 224.239 153.582C224.069 153.255 223.829 152.998 223.52 152.81C223.215 152.621 222.856 152.527 222.444 152.527C221.997 152.527 221.606 152.637 221.272 152.858C220.942 153.074 220.686 153.358 220.505 153.71C220.328 154.058 220.239 154.436 220.239 154.844V155.777C220.239 156.324 220.335 156.789 220.526 157.172C220.722 157.556 220.993 157.849 221.341 158.051C221.689 158.25 222.096 158.349 222.561 158.349C222.863 158.349 223.138 158.307 223.387 158.222C223.635 158.133 223.85 158.001 224.031 157.827C224.212 157.653 224.351 157.439 224.447 157.183L225.954 157.455C225.834 157.898 225.617 158.287 225.304 158.621C224.995 158.951 224.607 159.209 224.138 159.393C223.673 159.575 223.142 159.665 222.545 159.665ZM233.954 153.316L232.51 153.571C232.45 153.387 232.354 153.211 232.222 153.044C232.095 152.877 231.921 152.74 231.7 152.634C231.48 152.527 231.205 152.474 230.875 152.474C230.424 152.474 230.047 152.575 229.746 152.778C229.444 152.977 229.293 153.234 229.293 153.55C229.293 153.824 229.394 154.044 229.596 154.211C229.799 154.377 230.126 154.514 230.577 154.621L231.876 154.919C232.629 155.093 233.19 155.361 233.559 155.723C233.929 156.086 234.113 156.556 234.113 157.135C234.113 157.625 233.971 158.062 233.687 158.445C233.407 158.825 233.014 159.124 232.51 159.34C232.009 159.557 231.429 159.665 230.768 159.665C229.852 159.665 229.105 159.47 228.526 159.079C227.947 158.685 227.592 158.126 227.46 157.401L229 157.167C229.096 157.568 229.293 157.872 229.591 158.078C229.889 158.28 230.278 158.381 230.758 158.381C231.28 158.381 231.697 158.273 232.009 158.056C232.322 157.836 232.478 157.568 232.478 157.252C232.478 156.996 232.382 156.782 232.191 156.608C232.002 156.434 231.713 156.302 231.322 156.213L229.937 155.91C229.174 155.736 228.609 155.459 228.243 155.079C227.881 154.699 227.7 154.218 227.7 153.635C227.7 153.152 227.835 152.73 228.105 152.368C228.375 152.005 228.748 151.723 229.224 151.521C229.699 151.315 230.244 151.212 230.859 151.212C231.743 151.212 232.439 151.403 232.947 151.787C233.455 152.167 233.79 152.676 233.954 153.316ZM239.684 151.318V152.597H235.215V151.318H239.684ZM236.413 149.358H238.006V157.098C238.006 157.407 238.052 157.639 238.144 157.795C238.237 157.948 238.356 158.053 238.501 158.11C238.65 158.163 238.812 158.19 238.986 158.19C239.114 158.19 239.226 158.181 239.322 158.163C239.418 158.145 239.492 158.131 239.545 158.12L239.833 159.436C239.741 159.472 239.609 159.507 239.439 159.543C239.268 159.582 239.055 159.603 238.8 159.607C238.381 159.614 237.99 159.539 237.628 159.383C237.266 159.227 236.973 158.985 236.749 158.658C236.525 158.332 236.413 157.922 236.413 157.428V149.358Z" fill="#77829D"/>
</g>
<defs>
</defs>
</svg>
