<svg width="541" height="51" viewBox="0 0 541 51" fill="none" xmlns="http://www.w3.org/2000/svg">
<path d="M17.9578 38.336C14.8218 38.336 11.9418 37.6 9.31775 36.128C6.69375 34.656 4.61375 32.624 3.07775 30.032C1.54175 27.408 0.77375 24.448 0.77375 21.152C0.77375 17.888 1.54175 14.96 3.07775 12.368C4.61375 9.744 6.69375 7.696 9.31775 6.224C11.9418 4.752 14.8218 4.016 17.9578 4.016C21.1258 4.016 24.0058 4.752 26.5978 6.224C29.2218 7.696 31.2858 9.744 32.7898 12.368C34.3258 14.96 35.0938 17.888 35.0938 21.152C35.0938 24.448 34.3258 27.408 32.7898 30.032C31.2858 32.624 29.2218 34.656 26.5978 36.128C23.9738 37.6 21.0938 38.336 17.9578 38.336ZM17.9578 32.336C19.9738 32.336 21.7498 31.888 23.2858 30.992C24.8218 30.064 26.0218 28.752 26.8858 27.056C27.7498 25.36 28.1818 23.392 28.1818 21.152C28.1818 18.912 27.7498 16.96 26.8858 15.296C26.0218 13.6 24.8218 12.304 23.2858 11.408C21.7498 10.512 19.9738 10.064 17.9578 10.064C15.9418 10.064 14.1498 10.512 12.5818 11.408C11.0458 12.304 9.84575 13.6 8.98175 15.296C8.11775 16.96 7.68575 18.912 7.68575 21.152C7.68575 23.392 8.11775 25.36 8.98175 27.056C9.84575 28.752 11.0458 30.064 12.5818 30.992C14.1498 31.888 15.9418 32.336 17.9578 32.336ZM65.1973 11.408V38H58.4293V34.64C57.5653 35.792 56.4293 36.704 55.0213 37.376C53.6453 38.016 52.1413 38.336 50.5093 38.336C48.4293 38.336 46.5893 37.904 44.9893 37.04C43.3893 36.144 42.1253 34.848 41.1973 33.152C40.3013 31.424 39.8533 29.376 39.8533 27.008V11.408H46.5733V26.048C46.5733 28.16 47.1013 29.792 48.1573 30.944C49.2133 32.064 50.6533 32.624 52.4773 32.624C54.3333 32.624 55.7893 32.064 56.8453 30.944C57.9013 29.792 58.4293 28.16 58.4293 26.048V11.408H65.1973ZM78.5476 15.536C79.4116 14.128 80.5316 13.024 81.9076 12.224C83.3156 11.424 84.9156 11.024 86.7076 11.024V18.08H84.9316C82.8196 18.08 81.2196 18.576 80.1316 19.568C79.0756 20.56 78.5476 22.288 78.5476 24.752V38H71.8276V11.408H78.5476V15.536ZM139.199 4.496V38H132.479V16.208L123.503 38H118.415L109.391 16.208V38H102.671V4.496H110.303L120.959 29.408L131.615 4.496H139.199ZM170.563 24.128C170.563 25.088 170.499 25.952 170.371 26.72H150.931C151.091 28.64 151.763 30.144 152.947 31.232C154.131 32.32 155.587 32.864 157.315 32.864C159.811 32.864 161.587 31.792 162.643 29.648H169.891C169.123 32.208 167.651 34.32 165.475 35.984C163.299 37.616 160.627 38.432 157.459 38.432C154.899 38.432 152.595 37.872 150.547 36.752C148.531 35.6 146.947 33.984 145.795 31.904C144.675 29.824 144.115 27.424 144.115 24.704C144.115 21.952 144.675 19.536 145.795 17.456C146.915 15.376 148.483 13.776 150.499 12.656C152.515 11.536 154.835 10.976 157.459 10.976C159.987 10.976 162.243 11.52 164.227 12.608C166.243 13.696 167.795 15.248 168.883 17.264C170.003 19.248 170.563 21.536 170.563 24.128ZM163.603 22.208C163.571 20.48 162.947 19.104 161.731 18.08C160.515 17.024 159.027 16.496 157.267 16.496C155.603 16.496 154.195 17.008 153.043 18.032C151.923 19.024 151.235 20.416 150.979 22.208H163.603ZM173.74 24.608C173.74 21.92 174.268 19.536 175.324 17.456C176.412 15.376 177.884 13.776 179.74 12.656C181.596 11.536 183.66 10.976 185.932 10.976C187.66 10.976 189.308 11.36 190.876 12.128C192.444 12.864 193.692 13.856 194.62 15.104V2.48H201.436V38H194.62V34.064C193.788 35.376 192.62 36.432 191.116 37.232C189.612 38.032 187.868 38.432 185.884 38.432C183.644 38.432 181.596 37.856 179.74 36.704C177.884 35.552 176.412 33.936 175.324 31.856C174.268 29.744 173.74 27.328 173.74 24.608ZM194.668 24.704C194.668 23.072 194.348 21.68 193.708 20.528C193.068 19.344 192.204 18.448 191.116 17.84C190.028 17.2 188.86 16.88 187.612 16.88C186.364 16.88 185.212 17.184 184.156 17.792C183.1 18.4 182.236 19.296 181.564 20.48C180.924 21.632 180.604 23.008 180.604 24.608C180.604 26.208 180.924 27.616 181.564 28.832C182.236 30.016 183.1 30.928 184.156 31.568C185.244 32.208 186.396 32.528 187.612 32.528C188.86 32.528 190.028 32.224 191.116 31.616C192.204 30.976 193.068 30.08 193.708 28.928C194.348 27.744 194.668 26.336 194.668 24.704ZM211.408 8.24C210.224 8.24 209.232 7.872 208.432 7.136C207.664 6.368 207.28 5.424 207.28 4.304C207.28 3.184 207.664 2.256 208.432 1.52C209.232 0.751998 210.224 0.367998 211.408 0.367998C212.592 0.367998 213.568 0.751998 214.336 1.52C215.136 2.256 215.536 3.184 215.536 4.304C215.536 5.424 215.136 6.368 214.336 7.136C213.568 7.872 212.592 8.24 211.408 8.24ZM214.72 11.408V38H208V11.408H214.72ZM219.631 24.704C219.631 21.952 220.191 19.552 221.311 17.504C222.431 15.424 223.983 13.824 225.967 12.704C227.951 11.552 230.223 10.976 232.783 10.976C236.079 10.976 238.799 11.808 240.943 13.472C243.119 15.104 244.575 17.408 245.311 20.384H238.063C237.679 19.232 237.023 18.336 236.095 17.696C235.199 17.024 234.079 16.688 232.735 16.688C230.815 16.688 229.295 17.392 228.175 18.8C227.055 20.176 226.495 22.144 226.495 24.704C226.495 27.232 227.055 29.2 228.175 30.608C229.295 31.984 230.815 32.672 232.735 32.672C235.455 32.672 237.231 31.456 238.063 29.024H245.311C244.575 31.904 243.119 34.192 240.943 35.888C238.767 37.584 236.047 38.432 232.783 38.432C230.223 38.432 227.951 37.872 225.967 36.752C223.983 35.6 222.431 34 221.311 31.952C220.191 29.872 219.631 27.456 219.631 24.704ZM248.506 24.608C248.506 21.92 249.034 19.536 250.09 17.456C251.178 15.376 252.634 13.776 254.458 12.656C256.314 11.536 258.378 10.976 260.65 10.976C262.634 10.976 264.362 11.376 265.834 12.176C267.338 12.976 268.538 13.984 269.434 15.2V11.408H276.202V38H269.434V34.112C268.57 35.36 267.37 36.4 265.834 37.232C264.33 38.032 262.586 38.432 260.602 38.432C258.362 38.432 256.314 37.856 254.458 36.704C252.634 35.552 251.178 33.936 250.09 31.856C249.034 29.744 248.506 27.328 248.506 24.608ZM269.434 24.704C269.434 23.072 269.114 21.68 268.474 20.528C267.834 19.344 266.97 18.448 265.882 17.84C264.794 17.2 263.626 16.88 262.378 16.88C261.13 16.88 259.978 17.184 258.922 17.792C257.866 18.4 257.002 19.296 256.33 20.48C255.69 21.632 255.37 23.008 255.37 24.608C255.37 26.208 255.69 27.616 256.33 28.832C257.002 30.016 257.866 30.928 258.922 31.568C260.01 32.208 261.162 32.528 262.378 32.528C263.626 32.528 264.794 32.224 265.882 31.616C266.97 30.976 267.834 30.08 268.474 28.928C269.114 27.744 269.434 26.336 269.434 24.704ZM289.485 2.48V38H282.765V2.48H289.485ZM319.13 38.336C316.794 38.336 314.682 37.936 312.794 37.136C310.938 36.336 309.466 35.184 308.378 33.68C307.29 32.176 306.73 30.4 306.698 28.352H313.898C313.994 29.728 314.474 30.816 315.338 31.616C316.234 32.416 317.45 32.816 318.986 32.816C320.554 32.816 321.786 32.448 322.682 31.712C323.578 30.944 324.026 29.952 324.026 28.736C324.026 27.744 323.722 26.928 323.114 26.288C322.506 25.648 321.738 25.152 320.81 24.8C319.914 24.416 318.666 24 317.066 23.552C314.89 22.912 313.114 22.288 311.738 21.68C310.394 21.04 309.226 20.096 308.234 18.848C307.274 17.568 306.794 15.872 306.794 13.76C306.794 11.776 307.29 10.048 308.282 8.576C309.274 7.104 310.666 5.984 312.458 5.216C314.25 4.416 316.298 4.016 318.602 4.016C322.058 4.016 324.858 4.864 327.002 6.56C329.178 8.224 330.378 10.56 330.602 13.568H323.21C323.146 12.416 322.65 11.472 321.722 10.736C320.826 9.968 319.626 9.584 318.122 9.584C316.81 9.584 315.754 9.92 314.954 10.592C314.186 11.264 313.802 12.24 313.802 13.52C313.802 14.416 314.09 15.168 314.666 15.776C315.274 16.352 316.01 16.832 316.874 17.216C317.77 17.568 319.018 17.984 320.618 18.464C322.794 19.104 324.57 19.744 325.946 20.384C327.322 21.024 328.506 21.984 329.498 23.264C330.49 24.544 330.986 26.224 330.986 28.304C330.986 30.096 330.522 31.76 329.594 33.296C328.666 34.832 327.306 36.064 325.514 36.992C323.722 37.888 321.594 38.336 319.13 38.336ZM343.532 15.248C344.396 14.032 345.58 13.024 347.084 12.224C348.62 11.392 350.364 10.976 352.316 10.976C354.588 10.976 356.636 11.536 358.46 12.656C360.316 13.776 361.772 15.376 362.828 17.456C363.916 19.504 364.46 21.888 364.46 24.608C364.46 27.328 363.916 29.744 362.828 31.856C361.772 33.936 360.316 35.552 358.46 36.704C356.636 37.856 354.588 38.432 352.316 38.432C350.364 38.432 348.636 38.032 347.132 37.232C345.66 36.432 344.46 35.424 343.532 34.208V50.672H336.812V11.408H343.532V15.248ZM357.596 24.608C357.596 23.008 357.26 21.632 356.588 20.48C355.948 19.296 355.084 18.4 353.996 17.792C352.94 17.184 351.788 16.88 350.54 16.88C349.324 16.88 348.172 17.2 347.084 17.84C346.028 18.448 345.164 19.344 344.492 20.528C343.852 21.712 343.532 23.104 343.532 24.704C343.532 26.304 343.852 27.696 344.492 28.88C345.164 30.064 346.028 30.976 347.084 31.616C348.172 32.224 349.324 32.528 350.54 32.528C351.788 32.528 352.94 32.208 353.996 31.568C355.084 30.928 355.948 30.016 356.588 28.832C357.26 27.648 357.596 26.24 357.596 24.608ZM394.063 24.128C394.063 25.088 393.999 25.952 393.871 26.72H374.431C374.591 28.64 375.263 30.144 376.447 31.232C377.631 32.32 379.087 32.864 380.815 32.864C383.311 32.864 385.087 31.792 386.143 29.648H393.391C392.623 32.208 391.151 34.32 388.975 35.984C386.799 37.616 384.127 38.432 380.959 38.432C378.399 38.432 376.095 37.872 374.047 36.752C372.031 35.6 370.447 33.984 369.295 31.904C368.175 29.824 367.615 27.424 367.615 24.704C367.615 21.952 368.175 19.536 369.295 17.456C370.415 15.376 371.983 13.776 373.999 12.656C376.015 11.536 378.335 10.976 380.959 10.976C383.487 10.976 385.743 11.52 387.727 12.608C389.743 13.696 391.295 15.248 392.383 17.264C393.503 19.248 394.063 21.536 394.063 24.128ZM387.103 22.208C387.071 20.48 386.447 19.104 385.231 18.08C384.015 17.024 382.527 16.496 380.767 16.496C379.103 16.496 377.695 17.008 376.543 18.032C375.423 19.024 374.735 20.416 374.479 22.208H387.103ZM397.24 24.704C397.24 21.952 397.8 19.552 398.92 17.504C400.04 15.424 401.592 13.824 403.576 12.704C405.56 11.552 407.832 10.976 410.392 10.976C413.688 10.976 416.408 11.808 418.552 13.472C420.728 15.104 422.184 17.408 422.92 20.384H415.672C415.288 19.232 414.632 18.336 413.704 17.696C412.808 17.024 411.688 16.688 410.344 16.688C408.424 16.688 406.904 17.392 405.784 18.8C404.664 20.176 404.104 22.144 404.104 24.704C404.104 27.232 404.664 29.2 405.784 30.608C406.904 31.984 408.424 32.672 410.344 32.672C413.064 32.672 414.84 31.456 415.672 29.024H422.92C422.184 31.904 420.728 34.192 418.552 35.888C416.376 37.584 413.656 38.432 410.392 38.432C407.832 38.432 405.56 37.872 403.576 36.752C401.592 35.6 400.04 34 398.92 31.952C397.8 29.872 397.24 27.456 397.24 24.704ZM431.251 8.24C430.067 8.24 429.075 7.872 428.275 7.136C427.507 6.368 427.123 5.424 427.123 4.304C427.123 3.184 427.507 2.256 428.275 1.52C429.075 0.751998 430.067 0.367998 431.251 0.367998C432.435 0.367998 433.411 0.751998 434.179 1.52C434.979 2.256 435.379 3.184 435.379 4.304C435.379 5.424 434.979 6.368 434.179 7.136C433.411 7.872 432.435 8.24 431.251 8.24ZM434.563 11.408V38H427.843V11.408H434.563ZM439.475 24.608C439.475 21.92 440.003 19.536 441.059 17.456C442.147 15.376 443.603 13.776 445.427 12.656C447.283 11.536 449.347 10.976 451.619 10.976C453.603 10.976 455.331 11.376 456.803 12.176C458.307 12.976 459.507 13.984 460.403 15.2V11.408H467.171V38H460.403V34.112C459.539 35.36 458.339 36.4 456.803 37.232C455.299 38.032 453.555 38.432 451.571 38.432C449.331 38.432 447.283 37.856 445.427 36.704C443.603 35.552 442.147 33.936 441.059 31.856C440.003 29.744 439.475 27.328 439.475 24.608ZM460.403 24.704C460.403 23.072 460.083 21.68 459.443 20.528C458.803 19.344 457.939 18.448 456.851 17.84C455.763 17.2 454.595 16.88 453.347 16.88C452.099 16.88 450.947 17.184 449.891 17.792C448.835 18.4 447.971 19.296 447.299 20.48C446.659 21.632 446.339 23.008 446.339 24.608C446.339 26.208 446.659 27.616 447.299 28.832C447.971 30.016 448.835 30.928 449.891 31.568C450.979 32.208 452.131 32.528 453.347 32.528C454.595 32.528 455.763 32.224 456.851 31.616C457.939 30.976 458.803 30.08 459.443 28.928C460.083 27.744 460.403 26.336 460.403 24.704ZM480.454 2.48V38H473.734V2.48H480.454ZM490.501 8.24C489.317 8.24 488.325 7.872 487.525 7.136C486.757 6.368 486.373 5.424 486.373 4.304C486.373 3.184 486.757 2.256 487.525 1.52C488.325 0.751998 489.317 0.367998 490.501 0.367998C491.685 0.367998 492.661 0.751998 493.429 1.52C494.229 2.256 494.629 3.184 494.629 4.304C494.629 5.424 494.229 6.368 493.429 7.136C492.661 7.872 491.685 8.24 490.501 8.24ZM493.813 11.408V38H487.093V11.408H493.813ZM510.629 38.432C508.453 38.432 506.501 38.048 504.773 37.28C503.045 36.48 501.669 35.408 500.645 34.064C499.653 32.72 499.109 31.232 499.013 29.6H505.781C505.909 30.624 506.405 31.472 507.269 32.144C508.165 32.816 509.269 33.152 510.581 33.152C511.861 33.152 512.853 32.896 513.557 32.384C514.293 31.872 514.661 31.216 514.661 30.416C514.661 29.552 514.213 28.912 513.317 28.496C512.453 28.048 511.061 27.568 509.141 27.056C507.157 26.576 505.525 26.08 504.245 25.568C502.997 25.056 501.909 24.272 500.981 23.216C500.085 22.16 499.637 20.736 499.637 18.944C499.637 17.472 500.053 16.128 500.885 14.912C501.749 13.696 502.965 12.736 504.533 12.032C506.133 11.328 508.005 10.976 510.149 10.976C513.317 10.976 515.845 11.776 517.733 13.376C519.621 14.944 520.661 17.072 520.853 19.76H514.421C514.325 18.704 513.877 17.872 513.077 17.264C512.309 16.624 511.269 16.304 509.957 16.304C508.741 16.304 507.797 16.528 507.125 16.976C506.485 17.424 506.165 18.048 506.165 18.848C506.165 19.744 506.613 20.432 507.509 20.912C508.405 21.36 509.797 21.824 511.685 22.304C513.605 22.784 515.189 23.28 516.437 23.792C517.685 24.304 518.757 25.104 519.653 26.192C520.581 27.248 521.061 28.656 521.093 30.416C521.093 31.952 520.661 33.328 519.797 34.544C518.965 35.76 517.749 36.72 516.149 37.424C514.581 38.096 512.741 38.432 510.629 38.432ZM534.433 16.928V29.792C534.433 30.688 534.641 31.344 535.057 31.76C535.505 32.144 536.241 32.336 537.265 32.336H540.385V38H536.161C530.497 38 527.665 35.248 527.665 29.744V16.928H524.497V11.408H527.665V4.832H534.433V11.408H540.385V16.928H534.433Z" fill="#1B3C74"/>
</svg>
